<svg width="400" height="120" viewBox="0 0 400 120" fill="none" xmlns="http://www.w3.org/2000/svg">
<g clip-path="url(#clip0_301_21)">
<path d="M179 0.4L366 0" stroke="white" stroke-width="3.2"/>
<path d="M82.7585 91.408C78.0652 91.408 74.5665 89.8293 72.2625 86.672C70.0438 83.4293 68.5932 79.4613 67.9105 74.768C67.4838 71.3547 66.8012 67.9413 65.8625 64.528C65.0092 61.1147 63.6012 58 61.6385 55.184C59.7612 52.2827 57.0732 49.9787 53.5745 48.272C50.1612 46.5653 45.6812 45.712 40.1345 45.712H34.6305V72.976C34.6305 77.1573 34.9292 80.1867 35.5265 82.064C36.1238 83.856 37.2332 85.0507 38.8545 85.648C40.4758 86.16 42.7372 86.5867 45.6385 86.928L48.1985 87.184V90.384L29.2545 90H29.1265L10.1825 90.384V87.184L12.7425 86.928C15.7292 86.5867 17.9905 86.16 19.5265 85.648C21.1478 85.0507 22.2572 83.856 22.8545 82.064C23.4518 80.1867 23.7505 77.1573 23.7505 72.976V16.144C23.7505 11.8773 23.4518 8.848 22.8545 7.056C22.2572 5.264 21.1478 4.112 19.5265 3.6C17.9905 3.00266 15.7292 2.53333 12.7425 2.19199L10.1825 1.936V-1.26401L29.1265 -0.880005H47.0465C52.8492 -0.880005 58.2252 -0.197337 63.1745 1.168C68.1238 2.448 72.0918 4.70933 75.0785 7.952C78.1505 11.1947 79.6865 15.7173 79.6865 21.52C79.6865 26.64 78.5345 30.8213 76.2305 34.064C74.0118 37.2213 71.0252 39.6533 67.2705 41.36C63.6012 42.9813 59.5905 44.1333 55.2385 44.816C61.5532 45.2427 66.6732 47.4187 70.5985 51.344C74.6092 55.184 77.1692 60.8587 78.2785 68.368C79.0465 73.1467 79.9852 76.9013 81.0945 79.632C82.2892 82.2773 83.5692 84.1547 84.9345 85.264C86.3852 86.288 87.8358 86.8 89.2865 86.8C90.2252 86.8 91.1212 86.6293 91.9745 86.288C92.9132 85.9467 93.7238 85.6053 94.4065 85.264L95.3025 88.464C93.9372 89.1467 92.1025 89.7867 89.7985 90.384C87.4945 91.0667 85.1478 91.408 82.7585 91.408ZM47.3025 2.448H34.6305V42.256H45.3825C53.5745 42.256 59.2918 40.592 62.5345 37.264C65.8625 33.936 67.5265 28.944 67.5265 22.288C67.5265 15.9733 66.0332 11.1093 63.0465 7.696C60.0598 4.19733 54.8118 2.448 47.3025 2.448ZM99.1825 90.384V87.184L101.743 86.928C104.729 86.5867 106.991 86.16 108.527 85.648C110.148 85.0507 111.257 83.856 111.855 82.064C112.452 80.1867 112.751 77.1573 112.751 72.976V16.144C112.751 11.8773 112.452 8.848 111.855 7.056C111.257 5.264 110.148 4.112 108.527 3.6C106.991 3.00266 104.729 2.53333 101.743 2.19199L99.1825 1.936V-1.26401L118.127 -0.880005L135.151 -1.26401V2.064L132.591 2.31999C130.031 2.57599 128.068 3.04533 126.703 3.728C125.337 4.41066 124.399 5.69066 123.887 7.56799C123.375 9.44533 123.119 12.304 123.119 16.144V50.448L152.559 16.016C154.351 13.8827 155.631 12.048 156.399 10.512C157.252 8.97599 157.679 7.65333 157.679 6.544C157.679 4.24 155.716 2.87466 151.791 2.448L147.695 2.064V-1.26401L164.079 -0.880005L179.567 -1.26401V1.936L175.215 2.448C172.655 2.78933 170.223 3.81333 167.919 5.52C165.7 7.22666 163.353 9.53066 160.879 12.432L140.911 35.984L165.487 68.112C168.388 71.8667 170.991 75.1093 173.295 77.84C175.684 80.5707 178.073 82.704 180.463 84.24C182.937 85.6907 185.711 86.5867 188.783 86.928L191.471 87.184V90.384L172.015 90L153.071 90.384V87.184L154.991 87.056C159.087 86.8 161.135 85.5627 161.135 83.344C161.135 81.6373 159.983 79.2907 157.679 76.304L133.359 44.944L123.119 56.976V72.976C123.119 77.1573 123.375 80.1867 123.887 82.064C124.484 83.856 125.508 85.0507 126.958 85.648C128.409 86.16 130.5 86.5867 133.231 86.928L135.535 87.184V90.384L118.255 90H118.127L99.1825 90.384Z" fill="white"/>
<path d="M191 88.75L366 90.75" stroke="white" stroke-width="3.2"/>
<path d="M209.273 27.8125H214.008C215.18 27.8125 216.078 27.5 216.703 26.875C217.344 26.25 217.664 25.4219 217.664 24.3906C217.664 23.3906 217.328 22.5859 216.656 21.9766C216 21.3516 215.055 21.0391 213.82 21.0391H209.273V27.8125ZM207.398 37V19.4453H214.242C215.961 19.4453 217.281 19.9141 218.203 20.8516C219.125 21.7734 219.586 22.9141 219.586 24.2734C219.586 25.5078 219.273 26.5078 218.648 27.2734C218.023 28.0391 217.336 28.5234 216.586 28.7266C217.242 29.0703 217.719 29.4922 218.016 29.9922C218.312 30.4922 218.555 31.1875 218.742 32.0781C218.945 32.9531 219.086 33.5547 219.164 33.8828C219.258 34.1953 219.414 34.6484 219.633 35.2422C219.867 35.8359 220.148 36.4219 220.477 37H218.367C218.102 36.5 217.859 35.9688 217.641 35.4062C217.438 34.8281 217.289 34.3594 217.195 34C217.102 33.625 216.961 33.0312 216.773 32.2188C216.57 31.3438 216.258 30.6562 215.836 30.1562C215.43 29.6562 214.773 29.4062 213.867 29.4062H209.273V37H207.398ZM223.242 37V19.4453H234.211V21.0391H225.117V27.1328H233.32V28.7031H225.117V35.4062H234.398V37H223.242ZM239.883 30.4375H246.492L244.43 24.5312C244.305 24.1719 244.102 23.6016 243.82 22.8203C243.555 22.0234 243.367 21.4688 243.258 21.1562H243.117C242.461 23.0781 242.078 24.2031 241.969 24.5312L239.883 30.4375ZM235.477 37L242.039 19.4453H244.336L250.898 37H248.836L247.055 31.9375H239.32L237.539 37H235.477ZM253.242 37V19.4453H255.117V35.4062H263.461V37H253.242ZM262.992 21.0391V19.4453H275.555V21.0391H270.211V37H268.336V21.0391H262.992ZM276.68 28.2344C276.68 25.4844 277.344 23.2656 278.672 21.5781C280 19.875 281.773 19.0234 283.992 19.0234C286.227 19.0234 287.992 19.8672 289.289 21.5547C290.602 23.2422 291.258 25.4766 291.258 28.2578C291.258 31.0703 290.594 33.3047 289.266 34.9609C287.953 36.6016 286.195 37.4219 283.992 37.4219C281.773 37.4219 280 36.5938 278.672 34.9375C277.344 33.2656 276.68 31.0312 276.68 28.2344ZM278.602 28.2344C278.602 30.5469 279.086 32.3906 280.055 33.7656C281.023 35.125 282.336 35.8047 283.992 35.8047C285.617 35.8047 286.914 35.1328 287.883 33.7891C288.852 32.4453 289.336 30.6016 289.336 28.2578C289.336 25.9453 288.867 24.0938 287.93 22.7031C286.992 21.3125 285.68 20.6172 283.992 20.6172C282.336 20.6172 281.023 21.3047 280.055 22.6797C279.086 24.0547 278.602 25.9062 278.602 28.2344ZM296.789 27.8125H301.523C302.695 27.8125 303.594 27.5 304.219 26.875C304.859 26.25 305.18 25.4219 305.18 24.3906C305.18 23.3906 304.844 22.5859 304.172 21.9766C303.516 21.3516 302.57 21.0391 301.336 21.0391H296.789V27.8125ZM294.914 37V19.4453H301.758C303.477 19.4453 304.797 19.9141 305.719 20.8516C306.641 21.7734 307.102 22.9141 307.102 24.2734C307.102 25.5078 306.789 26.5078 306.164 27.2734C305.539 28.0391 304.852 28.5234 304.102 28.7266C304.758 29.0703 305.234 29.4922 305.531 29.9922C305.828 30.4922 306.07 31.1875 306.258 32.0781C306.461 32.9531 306.602 33.5547 306.68 33.8828C306.773 34.1953 306.93 34.6484 307.148 35.2422C307.383 35.8359 307.664 36.4219 307.992 37H305.883C305.617 36.5 305.375 35.9688 305.156 35.4062C304.953 34.8281 304.805 34.3594 304.711 34C304.617 33.625 304.477 33.0312 304.289 32.2188C304.086 31.3438 303.773 30.6562 303.352 30.1562C302.945 29.6562 302.289 29.4062 301.383 29.4062H296.789V37H294.914ZM309.258 33.6953L310.992 33.0859C312.039 34.8984 313.664 35.8047 315.867 35.8047C317.086 35.8047 318.078 35.5078 318.844 34.9141C319.609 34.3203 319.992 33.5078 319.992 32.4766C319.992 31.9609 319.883 31.5078 319.664 31.1172C319.445 30.7109 319.094 30.3594 318.609 30.0625C318.141 29.7656 317.703 29.5312 317.297 29.3594C316.891 29.1875 316.336 28.9844 315.633 28.75C315.07 28.5625 314.672 28.4297 314.438 28.3516C314.203 28.2734 313.828 28.1328 313.312 27.9297C312.812 27.7266 312.438 27.5469 312.188 27.3906C311.953 27.2344 311.656 27.0234 311.297 26.7578C310.938 26.4766 310.672 26.1953 310.5 25.9141C310.344 25.6328 310.195 25.2969 310.055 24.9062C309.93 24.5 309.867 24.0703 309.867 23.6172C309.867 22.2266 310.398 21.1172 311.461 20.2891C312.523 19.4453 313.945 19.0234 315.727 19.0234C317.086 19.0234 318.266 19.3359 319.266 19.9609C320.281 20.5859 321.008 21.3672 321.445 22.3047L319.852 22.8672C318.93 21.3672 317.539 20.6172 315.68 20.6172C314.461 20.6172 313.508 20.8906 312.82 21.4375C312.133 21.9844 311.789 22.7109 311.789 23.6172C311.789 24.0234 311.883 24.4062 312.07 24.7656C312.258 25.1094 312.461 25.3906 312.68 25.6094C312.914 25.8125 313.281 26.0391 313.781 26.2891C314.297 26.5234 314.695 26.6953 314.977 26.8047C315.273 26.8984 315.75 27.0547 316.406 27.2734C316.562 27.3203 316.68 27.3594 316.758 27.3906C317.523 27.6406 318.164 27.8828 318.68 28.1172C319.195 28.3516 319.727 28.6641 320.273 29.0547C320.82 29.4453 321.227 29.9219 321.492 30.4844C321.773 31.0312 321.914 31.6719 321.914 32.4062C321.914 33.9844 321.359 35.2188 320.25 36.1094C319.156 36.9844 317.68 37.4219 315.82 37.4219C314.227 37.4219 312.875 37.0859 311.766 36.4141C310.656 35.7422 309.82 34.8359 309.258 33.6953ZM332.039 32.5703C332.039 33.5859 332.367 34.3906 333.023 34.9844C333.695 35.5781 334.555 35.875 335.602 35.875C337.023 35.875 338.312 35.1797 339.469 33.7891L335.133 27.9062C334.211 28.5469 333.461 29.2344 332.883 29.9688C332.32 30.7031 332.039 31.5703 332.039 32.5703ZM330.164 32.5938C330.164 30.2812 331.5 28.2812 334.172 26.5938C334.125 26.5156 334.047 26.4062 333.938 26.2656C333.547 25.7188 333.266 25.3125 333.094 25.0469C332.938 24.7812 332.789 24.4531 332.648 24.0625C332.508 23.6719 332.438 23.2578 332.438 22.8203C332.438 21.8203 332.812 20.9688 333.562 20.2656C334.328 19.5625 335.391 19.2109 336.75 19.2109C338.828 19.2109 340.352 20.1953 341.32 22.1641L339.891 22.7969C339.609 22.25 339.188 21.7734 338.625 21.3672C338.078 20.9453 337.492 20.7344 336.867 20.7344C336.07 20.7344 335.445 20.9453 334.992 21.3672C334.539 21.7734 334.312 22.2812 334.312 22.8906C334.312 23.5312 334.773 24.5391 335.695 25.9141C336.617 27.2891 338.188 29.4219 340.406 32.3125C340.891 31.3438 341.25 30.2031 341.484 28.8906L343.172 29.1953C342.906 30.8828 342.375 32.4141 341.578 33.7891L344.039 37H341.883L340.5 35.1953C339.125 36.6797 337.469 37.4219 335.531 37.4219C333.828 37.4219 332.508 36.9609 331.57 36.0391C330.633 35.1172 330.164 33.9688 330.164 32.5938ZM192.691 58.2344C192.691 55.375 193.387 53.125 194.777 51.4844C196.168 49.8438 197.973 49.0234 200.191 49.0234C201.566 49.0234 202.73 49.4062 203.684 50.1719C204.652 50.9219 205.379 51.8203 205.863 52.8672L204.27 53.4297C203.223 51.5547 201.848 50.6172 200.145 50.6172C198.457 50.6172 197.113 51.3125 196.113 52.7031C195.113 54.0781 194.613 55.9219 194.613 58.2344C194.613 60.5781 195.121 62.4297 196.137 63.7891C197.152 65.1328 198.488 65.8047 200.145 65.8047C201.191 65.8047 202.105 65.5156 202.887 64.9375C203.668 64.3438 204.254 63.6172 204.645 62.7578L206.332 63.2969C205.801 64.4375 205.027 65.4141 204.012 66.2266C202.996 67.0234 201.723 67.4219 200.191 67.4219C197.988 67.4219 196.184 66.6094 194.777 64.9844C193.387 63.3438 192.691 61.0938 192.691 58.2344ZM208.207 58.2344C208.207 55.4844 208.871 53.2656 210.199 51.5781C211.527 49.875 213.301 49.0234 215.52 49.0234C217.754 49.0234 219.52 49.8672 220.816 51.5547C222.129 53.2422 222.785 55.4766 222.785 58.2578C222.785 61.0703 222.121 63.3047 220.793 64.9609C219.48 66.6016 217.723 67.4219 215.52 67.4219C213.301 67.4219 211.527 66.5938 210.199 64.9375C208.871 63.2656 208.207 61.0312 208.207 58.2344ZM210.129 58.2344C210.129 60.5469 210.613 62.3906 211.582 63.7656C212.551 65.125 213.863 65.8047 215.52 65.8047C217.145 65.8047 218.441 65.1328 219.41 63.7891C220.379 62.4453 220.863 60.6016 220.863 58.2578C220.863 55.9453 220.395 54.0938 219.457 52.7031C218.52 51.3125 217.207 50.6172 215.52 50.6172C213.863 50.6172 212.551 51.3047 211.582 52.6797C210.613 54.0547 210.129 55.9062 210.129 58.2344ZM226.441 67V49.4453H228.598L235.066 60.6484L237.176 64.3516H237.316C237.129 62.8984 237.035 61.2422 237.035 59.3828V49.4453H238.91V67H236.754L230.262 55.7266L228.176 52.1172H228.082C228.238 53.6797 228.316 55.3281 228.316 57.0625V67H226.441ZM242.285 63.6953L244.02 63.0859C245.066 64.8984 246.691 65.8047 248.895 65.8047C250.113 65.8047 251.105 65.5078 251.871 64.9141C252.637 64.3203 253.02 63.5078 253.02 62.4766C253.02 61.9609 252.91 61.5078 252.691 61.1172C252.473 60.7109 252.121 60.3594 251.637 60.0625C251.168 59.7656 250.73 59.5312 250.324 59.3594C249.918 59.1875 249.363 58.9844 248.66 58.75C248.098 58.5625 247.699 58.4297 247.465 58.3516C247.23 58.2734 246.855 58.1328 246.34 57.9297C245.84 57.7266 245.465 57.5469 245.215 57.3906C244.98 57.2344 244.684 57.0234 244.324 56.7578C243.965 56.4766 243.699 56.1953 243.527 55.9141C243.371 55.6328 243.223 55.2969 243.082 54.9062C242.957 54.5 242.895 54.0703 242.895 53.6172C242.895 52.2266 243.426 51.1172 244.488 50.2891C245.551 49.4453 246.973 49.0234 248.754 49.0234C250.113 49.0234 251.293 49.3359 252.293 49.9609C253.309 50.5859 254.035 51.3672 254.473 52.3047L252.879 52.8672C251.957 51.3672 250.566 50.6172 248.707 50.6172C247.488 50.6172 246.535 50.8906 245.848 51.4375C245.16 51.9844 244.816 52.7109 244.816 53.6172C244.816 54.0234 244.91 54.4062 245.098 54.7656C245.285 55.1094 245.488 55.3906 245.707 55.6094C245.941 55.8125 246.309 56.0391 246.809 56.2891C247.324 56.5234 247.723 56.6953 248.004 56.8047C248.301 56.8984 248.777 57.0547 249.434 57.2734C249.59 57.3203 249.707 57.3594 249.785 57.3906C250.551 57.6406 251.191 57.8828 251.707 58.1172C252.223 58.3516 252.754 58.6641 253.301 59.0547C253.848 59.4453 254.254 59.9219 254.52 60.4844C254.801 61.0312 254.941 61.6719 254.941 62.4062C254.941 63.9844 254.387 65.2188 253.277 66.1094C252.184 66.9844 250.707 67.4219 248.848 67.4219C247.254 67.4219 245.902 67.0859 244.793 66.4141C243.684 65.7422 242.848 64.8359 242.285 63.6953ZM258.293 60.6484V49.4453H260.168V60.6016C260.168 62.3516 260.566 63.6562 261.363 64.5156C262.176 65.375 263.215 65.8047 264.48 65.8047C265.777 65.8047 266.824 65.3672 267.621 64.4922C268.434 63.6016 268.84 62.3047 268.84 60.6016V49.4453H270.715V60.6484C270.715 62.7734 270.176 64.4375 269.098 65.6406C268.02 66.8281 266.48 67.4219 264.48 67.4219C262.527 67.4219 261.004 66.8359 259.91 65.6641C258.832 64.4922 258.293 62.8203 258.293 60.6484ZM275.52 67V49.4453H277.395V65.4062H285.738V67H275.52ZM285.27 51.0391V49.4453H297.832V51.0391H292.488V67H290.613V51.0391H285.27ZM301.816 60.4375H308.426L306.363 54.5312C306.238 54.1719 306.035 53.6016 305.754 52.8203C305.488 52.0234 305.301 51.4688 305.191 51.1562H305.051C304.395 53.0781 304.012 54.2031 303.902 54.5312L301.816 60.4375ZM297.41 67L303.973 49.4453H306.27L312.832 67H310.77L308.988 61.9375H301.254L299.473 67H297.41ZM315.176 67V49.4453H317.332L323.801 60.6484L325.91 64.3516H326.051C325.863 62.8984 325.77 61.2422 325.77 59.3828V49.4453H327.645V67H325.488L318.996 55.7266L316.91 52.1172H316.816C316.973 53.6797 317.051 55.3281 317.051 57.0625V67H315.176ZM330.363 51.0391V49.4453H342.926V51.0391H337.582V67H335.707V51.0391H330.363ZM343.91 63.6953L345.645 63.0859C346.691 64.8984 348.316 65.8047 350.52 65.8047C351.738 65.8047 352.73 65.5078 353.496 64.9141C354.262 64.3203 354.645 63.5078 354.645 62.4766C354.645 61.9609 354.535 61.5078 354.316 61.1172C354.098 60.7109 353.746 60.3594 353.262 60.0625C352.793 59.7656 352.355 59.5312 351.949 59.3594C351.543 59.1875 350.988 58.9844 350.285 58.75C349.723 58.5625 349.324 58.4297 349.09 58.3516C348.855 58.2734 348.48 58.1328 347.965 57.9297C347.465 57.7266 347.09 57.5469 346.84 57.3906C346.605 57.2344 346.309 57.0234 345.949 56.7578C345.59 56.4766 345.324 56.1953 345.152 55.9141C344.996 55.6328 344.848 55.2969 344.707 54.9062C344.582 54.5 344.52 54.0703 344.52 53.6172C344.52 52.2266 345.051 51.1172 346.113 50.2891C347.176 49.4453 348.598 49.0234 350.379 49.0234C351.738 49.0234 352.918 49.3359 353.918 49.9609C354.934 50.5859 355.66 51.3672 356.098 52.3047L354.504 52.8672C353.582 51.3672 352.191 50.6172 350.332 50.6172C349.113 50.6172 348.16 50.8906 347.473 51.4375C346.785 51.9844 346.441 52.7109 346.441 53.6172C346.441 54.0234 346.535 54.4062 346.723 54.7656C346.91 55.1094 347.113 55.3906 347.332 55.6094C347.566 55.8125 347.934 56.0391 348.434 56.2891C348.949 56.5234 349.348 56.6953 349.629 56.8047C349.926 56.8984 350.402 57.0547 351.059 57.2734C351.215 57.3203 351.332 57.3594 351.41 57.3906C352.176 57.6406 352.816 57.8828 353.332 58.1172C353.848 58.3516 354.379 58.6641 354.926 59.0547C355.473 59.4453 355.879 59.9219 356.145 60.4844C356.426 61.0312 356.566 61.6719 356.566 62.4062C356.566 63.9844 356.012 65.2188 354.902 66.1094C353.809 66.9844 352.332 67.4219 350.473 67.4219C348.879 67.4219 347.527 67.0859 346.418 66.4141C345.309 65.7422 344.473 64.8359 343.91 63.6953Z" fill="white"/>
<path d="M24.8789 103.172H26.8516C27.3398 103.172 27.7142 103.042 27.9746 102.781C28.2415 102.521 28.375 102.176 28.375 101.746C28.375 101.329 28.235 100.994 27.9551 100.74C27.6816 100.48 27.2878 100.35 26.7734 100.35H24.8789V103.172ZM24.0977 107V99.6855H26.9492C27.6654 99.6855 28.2155 99.8809 28.5996 100.271C28.9837 100.656 29.1758 101.131 29.1758 101.697C29.1758 102.212 29.0456 102.628 28.7852 102.947C28.5247 103.266 28.2383 103.468 27.9258 103.553C28.1992 103.696 28.3978 103.872 28.5215 104.08C28.6452 104.288 28.7461 104.578 28.8242 104.949C28.9089 105.314 28.9674 105.564 29 105.701C29.0391 105.831 29.1042 106.02 29.1953 106.268C29.293 106.515 29.4102 106.759 29.5469 107H28.668C28.5573 106.792 28.4564 106.57 28.3652 106.336C28.2806 106.095 28.2188 105.9 28.1797 105.75C28.1406 105.594 28.082 105.346 28.0039 105.008C27.9193 104.643 27.7891 104.357 27.6133 104.148C27.444 103.94 27.1706 103.836 26.793 103.836H24.8789V107H24.0977ZM30.6992 107V99.6855H35.2695V100.35H31.4805V102.889H34.8984V103.543H31.4805V106.336H35.3477V107H30.6992ZM37.6328 104.266H40.3867L39.5273 101.805C39.4753 101.655 39.3906 101.417 39.2734 101.092C39.1628 100.76 39.0846 100.529 39.0391 100.398H38.9805C38.707 101.199 38.5475 101.668 38.502 101.805L37.6328 104.266ZM35.7969 107L38.5312 99.6855H39.4883L42.2227 107H41.3633L40.6211 104.891H37.3984L36.6562 107H35.7969ZM43.1992 107V99.6855H43.9805V106.336H47.457V107H43.1992ZM50.9922 107V99.6855H55.5625V100.35H51.7734V102.889H55.1914V103.543H51.7734V106.336H55.6406V107H50.9922ZM56.4219 105.623L57.1445 105.369C57.5807 106.124 58.2578 106.502 59.1758 106.502C59.6836 106.502 60.097 106.378 60.416 106.131C60.735 105.883 60.8945 105.545 60.8945 105.115C60.8945 104.9 60.849 104.712 60.7578 104.549C60.6667 104.38 60.5202 104.233 60.3184 104.109C60.123 103.986 59.9408 103.888 59.7715 103.816C59.6022 103.745 59.3711 103.66 59.0781 103.562C58.8438 103.484 58.6777 103.429 58.5801 103.396C58.4824 103.364 58.3262 103.305 58.1113 103.221C57.903 103.136 57.7467 103.061 57.6426 102.996C57.5449 102.931 57.4212 102.843 57.2715 102.732C57.1217 102.615 57.0111 102.498 56.9395 102.381C56.8743 102.264 56.8125 102.124 56.7539 101.961C56.7018 101.792 56.6758 101.613 56.6758 101.424C56.6758 100.844 56.8971 100.382 57.3398 100.037C57.7826 99.6855 58.375 99.5098 59.1172 99.5098C59.6836 99.5098 60.1751 99.64 60.5918 99.9004C61.015 100.161 61.3177 100.486 61.5 100.877L60.8359 101.111C60.4518 100.486 59.8724 100.174 59.0977 100.174C58.5898 100.174 58.1927 100.288 57.9062 100.516C57.6198 100.743 57.4766 101.046 57.4766 101.424C57.4766 101.593 57.5156 101.753 57.5938 101.902C57.6719 102.046 57.7565 102.163 57.8477 102.254C57.9453 102.339 58.0983 102.433 58.3066 102.537C58.5215 102.635 58.6875 102.706 58.8047 102.752C58.9284 102.791 59.127 102.856 59.4004 102.947C59.4655 102.967 59.5143 102.983 59.5469 102.996C59.8659 103.1 60.1328 103.201 60.3477 103.299C60.5625 103.396 60.7839 103.527 61.0117 103.689C61.2396 103.852 61.4089 104.051 61.5195 104.285C61.6367 104.513 61.6953 104.78 61.6953 105.086C61.6953 105.743 61.4642 106.258 61.002 106.629C60.5462 106.993 59.931 107.176 59.1562 107.176C58.4922 107.176 57.929 107.036 57.4668 106.756C57.0046 106.476 56.6562 106.098 56.4219 105.623ZM61.9688 100.35V99.6855H67.2031V100.35H64.9766V107H64.1953V100.35H61.9688ZM68.8633 104.266H71.6172L70.7578 101.805C70.7057 101.655 70.6211 101.417 70.5039 101.092C70.3932 100.76 70.3151 100.529 70.2695 100.398H70.2109C69.9375 101.199 69.778 101.668 69.7324 101.805L68.8633 104.266ZM67.0273 107L69.7617 99.6855H70.7188L73.4531 107H72.5938L71.8516 104.891H68.6289L67.8867 107H67.0273ZM73.1992 100.35V99.6855H78.4336V100.35H76.207V107H75.4258V100.35H73.1992ZM79.5469 107V99.6855H84.1172V100.35H80.3281V102.889H83.7461V103.543H80.3281V106.336H84.1953V107H79.5469ZM87.9844 108.65V98.377H88.7461V108.65H87.9844ZM92.252 100.35V99.6855H97.4863V100.35H95.2598V107H94.4785V100.35H92.252ZM99.1465 104.266H101.9L101.041 101.805C100.989 101.655 100.904 101.417 100.787 101.092C100.676 100.76 100.598 100.529 100.553 100.398H100.494C100.221 101.199 100.061 101.668 100.016 101.805L99.1465 104.266ZM97.3105 107L100.045 99.6855H101.002L103.736 107H102.877L102.135 104.891H98.9121L98.1699 107H97.3105ZM103.678 107L106.08 103.24L103.795 99.6855H104.771L105.846 101.453C105.937 101.603 106.067 101.824 106.236 102.117C106.412 102.41 106.516 102.586 106.549 102.645H106.588C106.673 102.495 106.796 102.286 106.959 102.02C107.128 101.746 107.245 101.557 107.311 101.453L108.385 99.6855H109.361L107.057 103.24L109.479 107H108.521L107.369 105.164C107.278 105.014 107.138 104.783 106.949 104.471C106.76 104.152 106.64 103.95 106.588 103.865H106.549C106.282 104.327 106.025 104.76 105.777 105.164L104.635 107H103.678ZM113.688 104.266H116.441L115.582 101.805C115.53 101.655 115.445 101.417 115.328 101.092C115.217 100.76 115.139 100.529 115.094 100.398H115.035C114.762 101.199 114.602 101.668 114.557 101.805L113.688 104.266ZM111.852 107L114.586 99.6855H115.543L118.277 107H117.418L116.676 104.891H113.453L112.711 107H111.852ZM119.254 107V99.6855H121.227C122.281 99.6855 123.111 99.998 123.717 100.623C124.322 101.242 124.625 102.15 124.625 103.348C124.625 104.487 124.332 105.382 123.746 106.033C123.16 106.678 122.314 107 121.207 107H119.254ZM120.035 106.336H121.09C121.936 106.336 122.604 106.098 123.092 105.623C123.58 105.141 123.824 104.383 123.824 103.348C123.824 102.299 123.58 101.538 123.092 101.062C122.604 100.587 121.943 100.35 121.109 100.35H120.035V106.336ZM124.83 99.6855H125.689L127.281 104.715C127.333 104.884 127.408 105.132 127.506 105.457C127.604 105.776 127.682 106.033 127.74 106.229H127.779C127.838 106.027 127.916 105.77 128.014 105.457C128.111 105.138 128.186 104.891 128.238 104.715L129.85 99.6855H130.709L128.248 107H127.291L124.83 99.6855ZM131.695 107V99.6855H132.477V107H131.695ZM133.873 105.623L134.596 105.369C135.032 106.124 135.709 106.502 136.627 106.502C137.135 106.502 137.548 106.378 137.867 106.131C138.186 105.883 138.346 105.545 138.346 105.115C138.346 104.9 138.3 104.712 138.209 104.549C138.118 104.38 137.971 104.233 137.77 104.109C137.574 103.986 137.392 103.888 137.223 103.816C137.053 103.745 136.822 103.66 136.529 103.562C136.295 103.484 136.129 103.429 136.031 103.396C135.934 103.364 135.777 103.305 135.562 103.221C135.354 103.136 135.198 103.061 135.094 102.996C134.996 102.931 134.872 102.843 134.723 102.732C134.573 102.615 134.462 102.498 134.391 102.381C134.326 102.264 134.264 102.124 134.205 101.961C134.153 101.792 134.127 101.613 134.127 101.424C134.127 100.844 134.348 100.382 134.791 100.037C135.234 99.6855 135.826 99.5098 136.568 99.5098C137.135 99.5098 137.626 99.64 138.043 99.9004C138.466 100.161 138.769 100.486 138.951 100.877L138.287 101.111C137.903 100.486 137.324 100.174 136.549 100.174C136.041 100.174 135.644 100.288 135.357 100.516C135.071 100.743 134.928 101.046 134.928 101.424C134.928 101.593 134.967 101.753 135.045 101.902C135.123 102.046 135.208 102.163 135.299 102.254C135.396 102.339 135.549 102.433 135.758 102.537C135.973 102.635 136.139 102.706 136.256 102.752C136.38 102.791 136.578 102.856 136.852 102.947C136.917 102.967 136.965 102.983 136.998 102.996C137.317 103.1 137.584 103.201 137.799 103.299C138.014 103.396 138.235 103.527 138.463 103.689C138.691 103.852 138.86 104.051 138.971 104.285C139.088 104.513 139.146 104.78 139.146 105.086C139.146 105.743 138.915 106.258 138.453 106.629C137.997 106.993 137.382 107.176 136.607 107.176C135.943 107.176 135.38 107.036 134.918 106.756C134.456 106.476 134.107 106.098 133.873 105.623ZM140.055 103.348C140.055 102.202 140.331 101.277 140.885 100.574C141.438 99.8646 142.177 99.5098 143.102 99.5098C144.033 99.5098 144.768 99.8613 145.309 100.564C145.855 101.268 146.129 102.199 146.129 103.357C146.129 104.529 145.852 105.46 145.299 106.15C144.752 106.834 144.02 107.176 143.102 107.176C142.177 107.176 141.438 106.831 140.885 106.141C140.331 105.444 140.055 104.513 140.055 103.348ZM140.855 103.348C140.855 104.311 141.057 105.079 141.461 105.652C141.865 106.219 142.411 106.502 143.102 106.502C143.779 106.502 144.319 106.222 144.723 105.662C145.126 105.102 145.328 104.334 145.328 103.357C145.328 102.394 145.133 101.622 144.742 101.043C144.352 100.464 143.805 100.174 143.102 100.174C142.411 100.174 141.865 100.46 141.461 101.033C141.057 101.606 140.855 102.378 140.855 103.348ZM148.434 103.172H150.406C150.895 103.172 151.269 103.042 151.529 102.781C151.796 102.521 151.93 102.176 151.93 101.746C151.93 101.329 151.79 100.994 151.51 100.74C151.236 100.48 150.842 100.35 150.328 100.35H148.434V103.172ZM147.652 107V99.6855H150.504C151.22 99.6855 151.77 99.8809 152.154 100.271C152.538 100.656 152.73 101.131 152.73 101.697C152.73 102.212 152.6 102.628 152.34 102.947C152.079 103.266 151.793 103.468 151.48 103.553C151.754 103.696 151.952 103.872 152.076 104.08C152.2 104.288 152.301 104.578 152.379 104.949C152.464 105.314 152.522 105.564 152.555 105.701C152.594 105.831 152.659 106.02 152.75 106.268C152.848 106.515 152.965 106.759 153.102 107H152.223C152.112 106.792 152.011 106.57 151.92 106.336C151.835 106.095 151.773 105.9 151.734 105.75C151.695 105.594 151.637 105.346 151.559 105.008C151.474 104.643 151.344 104.357 151.168 104.148C150.999 103.94 150.725 103.836 150.348 103.836H148.434V107H147.652ZM156.637 108.65V98.377H157.398V108.65H156.637ZM161.803 107V99.6855H164.498C165.208 99.6855 165.745 99.8548 166.109 100.193C166.48 100.532 166.666 100.988 166.666 101.561C166.666 101.951 166.565 102.283 166.363 102.557C166.168 102.824 165.917 103.025 165.611 103.162C165.982 103.273 166.295 103.488 166.549 103.807C166.809 104.126 166.939 104.51 166.939 104.959C166.939 105.519 166.754 106.001 166.383 106.404C166.018 106.801 165.507 107 164.85 107H161.803ZM162.584 106.336H164.654C165.077 106.336 165.429 106.215 165.709 105.975C165.995 105.727 166.139 105.392 166.139 104.969C166.139 104.565 165.999 104.23 165.719 103.963C165.445 103.696 165.077 103.562 164.615 103.562H162.584V106.336ZM162.584 102.908H164.361C164.798 102.908 165.156 102.801 165.436 102.586C165.722 102.371 165.865 102.049 165.865 101.619C165.865 101.242 165.748 100.936 165.514 100.701C165.286 100.467 164.915 100.35 164.4 100.35H162.584V102.908ZM168.424 104.354V99.6855H169.205V104.334C169.205 105.063 169.371 105.607 169.703 105.965C170.042 106.323 170.475 106.502 171.002 106.502C171.542 106.502 171.979 106.32 172.311 105.955C172.649 105.584 172.818 105.044 172.818 104.334V99.6855H173.6V104.354C173.6 105.239 173.375 105.932 172.926 106.434C172.477 106.928 171.835 107.176 171.002 107.176C170.188 107.176 169.553 106.932 169.098 106.443C168.648 105.955 168.424 105.258 168.424 104.354ZM174.977 105.623L175.699 105.369C176.135 106.124 176.812 106.502 177.73 106.502C178.238 106.502 178.652 106.378 178.971 106.131C179.29 105.883 179.449 105.545 179.449 105.115C179.449 104.9 179.404 104.712 179.312 104.549C179.221 104.38 179.075 104.233 178.873 104.109C178.678 103.986 178.495 103.888 178.326 103.816C178.157 103.745 177.926 103.66 177.633 103.562C177.398 103.484 177.232 103.429 177.135 103.396C177.037 103.364 176.881 103.305 176.666 103.221C176.458 103.136 176.301 103.061 176.197 102.996C176.1 102.931 175.976 102.843 175.826 102.732C175.676 102.615 175.566 102.498 175.494 102.381C175.429 102.264 175.367 102.124 175.309 101.961C175.257 101.792 175.23 101.613 175.23 101.424C175.23 100.844 175.452 100.382 175.895 100.037C176.337 99.6855 176.93 99.5098 177.672 99.5098C178.238 99.5098 178.73 99.64 179.146 99.9004C179.57 100.161 179.872 100.486 180.055 100.877L179.391 101.111C179.007 100.486 178.427 100.174 177.652 100.174C177.145 100.174 176.747 100.288 176.461 100.516C176.174 100.743 176.031 101.046 176.031 101.424C176.031 101.593 176.07 101.753 176.148 101.902C176.227 102.046 176.311 102.163 176.402 102.254C176.5 102.339 176.653 102.433 176.861 102.537C177.076 102.635 177.242 102.706 177.359 102.752C177.483 102.791 177.682 102.856 177.955 102.947C178.02 102.967 178.069 102.983 178.102 102.996C178.421 103.1 178.688 103.201 178.902 103.299C179.117 103.396 179.339 103.527 179.566 103.689C179.794 103.852 179.964 104.051 180.074 104.285C180.191 104.513 180.25 104.78 180.25 105.086C180.25 105.743 180.019 106.258 179.557 106.629C179.101 106.993 178.486 107.176 177.711 107.176C177.047 107.176 176.484 107.036 176.021 106.756C175.559 106.476 175.211 106.098 174.977 105.623ZM181.666 107V99.6855H182.447V107H181.666ZM184.469 107V99.6855H185.367L188.062 104.354L188.941 105.896H189C188.922 105.291 188.883 104.601 188.883 103.826V99.6855H189.664V107H188.766L186.061 102.303L185.191 100.799H185.152C185.217 101.45 185.25 102.137 185.25 102.859V107H184.469ZM191.695 107V99.6855H196.266V100.35H192.477V102.889H195.895V103.543H192.477V106.336H196.344V107H191.695ZM197.125 105.623L197.848 105.369C198.284 106.124 198.961 106.502 199.879 106.502C200.387 106.502 200.8 106.378 201.119 106.131C201.438 105.883 201.598 105.545 201.598 105.115C201.598 104.9 201.552 104.712 201.461 104.549C201.37 104.38 201.223 104.233 201.021 104.109C200.826 103.986 200.644 103.888 200.475 103.816C200.305 103.745 200.074 103.66 199.781 103.562C199.547 103.484 199.381 103.429 199.283 103.396C199.186 103.364 199.029 103.305 198.814 103.221C198.606 103.136 198.45 103.061 198.346 102.996C198.248 102.931 198.124 102.843 197.975 102.732C197.825 102.615 197.714 102.498 197.643 102.381C197.577 102.264 197.516 102.124 197.457 101.961C197.405 101.792 197.379 101.613 197.379 101.424C197.379 100.844 197.6 100.382 198.043 100.037C198.486 99.6855 199.078 99.5098 199.82 99.5098C200.387 99.5098 200.878 99.64 201.295 99.9004C201.718 100.161 202.021 100.486 202.203 100.877L201.539 101.111C201.155 100.486 200.576 100.174 199.801 100.174C199.293 100.174 198.896 100.288 198.609 100.516C198.323 100.743 198.18 101.046 198.18 101.424C198.18 101.593 198.219 101.753 198.297 101.902C198.375 102.046 198.46 102.163 198.551 102.254C198.648 102.339 198.801 102.433 199.01 102.537C199.225 102.635 199.391 102.706 199.508 102.752C199.632 102.791 199.83 102.856 200.104 102.947C200.169 102.967 200.217 102.983 200.25 102.996C200.569 103.1 200.836 103.201 201.051 103.299C201.266 103.396 201.487 103.527 201.715 103.689C201.943 103.852 202.112 104.051 202.223 104.285C202.34 104.513 202.398 104.78 202.398 105.086C202.398 105.743 202.167 106.258 201.705 106.629C201.249 106.993 200.634 107.176 199.859 107.176C199.195 107.176 198.632 107.036 198.17 106.756C197.708 106.476 197.359 106.098 197.125 105.623ZM203.189 105.623L203.912 105.369C204.348 106.124 205.025 106.502 205.943 106.502C206.451 106.502 206.865 106.378 207.184 106.131C207.503 105.883 207.662 105.545 207.662 105.115C207.662 104.9 207.617 104.712 207.525 104.549C207.434 104.38 207.288 104.233 207.086 104.109C206.891 103.986 206.708 103.888 206.539 103.816C206.37 103.745 206.139 103.66 205.846 103.562C205.611 103.484 205.445 103.429 205.348 103.396C205.25 103.364 205.094 103.305 204.879 103.221C204.671 103.136 204.514 103.061 204.41 102.996C204.312 102.931 204.189 102.843 204.039 102.732C203.889 102.615 203.779 102.498 203.707 102.381C203.642 102.264 203.58 102.124 203.521 101.961C203.469 101.792 203.443 101.613 203.443 101.424C203.443 100.844 203.665 100.382 204.107 100.037C204.55 99.6855 205.143 99.5098 205.885 99.5098C206.451 99.5098 206.943 99.64 207.359 99.9004C207.783 100.161 208.085 100.486 208.268 100.877L207.604 101.111C207.219 100.486 206.64 100.174 205.865 100.174C205.357 100.174 204.96 100.288 204.674 100.516C204.387 100.743 204.244 101.046 204.244 101.424C204.244 101.593 204.283 101.753 204.361 101.902C204.439 102.046 204.524 102.163 204.615 102.254C204.713 102.339 204.866 102.433 205.074 102.537C205.289 102.635 205.455 102.706 205.572 102.752C205.696 102.791 205.895 102.856 206.168 102.947C206.233 102.967 206.282 102.983 206.314 102.996C206.633 103.1 206.9 103.201 207.115 103.299C207.33 103.396 207.551 103.527 207.779 103.689C208.007 103.852 208.176 104.051 208.287 104.285C208.404 104.513 208.463 104.78 208.463 105.086C208.463 105.743 208.232 106.258 207.77 106.629C207.314 106.993 206.699 107.176 205.924 107.176C205.26 107.176 204.697 107.036 204.234 106.756C203.772 106.476 203.424 106.098 203.189 105.623ZM211.695 105.623L212.418 105.369C212.854 106.124 213.531 106.502 214.449 106.502C214.957 106.502 215.37 106.378 215.689 106.131C216.008 105.883 216.168 105.545 216.168 105.115C216.168 104.9 216.122 104.712 216.031 104.549C215.94 104.38 215.794 104.233 215.592 104.109C215.396 103.986 215.214 103.888 215.045 103.816C214.876 103.745 214.645 103.66 214.352 103.562C214.117 103.484 213.951 103.429 213.854 103.396C213.756 103.364 213.6 103.305 213.385 103.221C213.176 103.136 213.02 103.061 212.916 102.996C212.818 102.931 212.695 102.843 212.545 102.732C212.395 102.615 212.285 102.498 212.213 102.381C212.148 102.264 212.086 102.124 212.027 101.961C211.975 101.792 211.949 101.613 211.949 101.424C211.949 100.844 212.171 100.382 212.613 100.037C213.056 99.6855 213.648 99.5098 214.391 99.5098C214.957 99.5098 215.449 99.64 215.865 99.9004C216.288 100.161 216.591 100.486 216.773 100.877L216.109 101.111C215.725 100.486 215.146 100.174 214.371 100.174C213.863 100.174 213.466 100.288 213.18 100.516C212.893 100.743 212.75 101.046 212.75 101.424C212.75 101.593 212.789 101.753 212.867 101.902C212.945 102.046 213.03 102.163 213.121 102.254C213.219 102.339 213.372 102.433 213.58 102.537C213.795 102.635 213.961 102.706 214.078 102.752C214.202 102.791 214.4 102.856 214.674 102.947C214.739 102.967 214.788 102.983 214.82 102.996C215.139 103.1 215.406 103.201 215.621 103.299C215.836 103.396 216.057 103.527 216.285 103.689C216.513 103.852 216.682 104.051 216.793 104.285C216.91 104.513 216.969 104.78 216.969 105.086C216.969 105.743 216.738 106.258 216.275 106.629C215.82 106.993 215.204 107.176 214.43 107.176C213.766 107.176 213.202 107.036 212.74 106.756C212.278 106.476 211.93 106.098 211.695 105.623ZM218.365 104.354V99.6855H219.146V104.334C219.146 105.063 219.312 105.607 219.645 105.965C219.983 106.323 220.416 106.502 220.943 106.502C221.484 106.502 221.92 106.32 222.252 105.955C222.59 105.584 222.76 105.044 222.76 104.334V99.6855H223.541V104.354C223.541 105.239 223.316 105.932 222.867 106.434C222.418 106.928 221.777 107.176 220.943 107.176C220.13 107.176 219.495 106.932 219.039 106.443C218.59 105.955 218.365 105.258 218.365 104.354ZM225.543 107V99.6855H228.297C229.007 99.6855 229.566 99.8809 229.977 100.271C230.393 100.662 230.602 101.18 230.602 101.824C230.602 102.488 230.39 103.012 229.967 103.396C229.544 103.781 228.987 103.973 228.297 103.973H226.324V107H225.543ZM226.324 103.318H228.18C228.694 103.318 229.091 103.195 229.371 102.947C229.658 102.693 229.801 102.319 229.801 101.824C229.801 101.342 229.658 100.978 229.371 100.73C229.091 100.477 228.688 100.35 228.16 100.35H226.324V103.318ZM232.008 107V99.6855H234.762C235.471 99.6855 236.031 99.8809 236.441 100.271C236.858 100.662 237.066 101.18 237.066 101.824C237.066 102.488 236.855 103.012 236.432 103.396C236.008 103.781 235.452 103.973 234.762 103.973H232.789V107H232.008ZM232.789 103.318H234.645C235.159 103.318 235.556 103.195 235.836 102.947C236.122 102.693 236.266 102.319 236.266 101.824C236.266 101.342 236.122 100.978 235.836 100.73C235.556 100.477 235.152 100.35 234.625 100.35H232.789V103.318ZM237.965 103.348C237.965 102.202 238.242 101.277 238.795 100.574C239.348 99.8646 240.087 99.5098 241.012 99.5098C241.943 99.5098 242.678 99.8613 243.219 100.564C243.766 101.268 244.039 102.199 244.039 103.357C244.039 104.529 243.762 105.46 243.209 106.15C242.662 106.834 241.93 107.176 241.012 107.176C240.087 107.176 239.348 106.831 238.795 106.141C238.242 105.444 237.965 104.513 237.965 103.348ZM238.766 103.348C238.766 104.311 238.967 105.079 239.371 105.652C239.775 106.219 240.322 106.502 241.012 106.502C241.689 106.502 242.229 106.222 242.633 105.662C243.036 105.102 243.238 104.334 243.238 103.357C243.238 102.394 243.043 101.622 242.652 101.043C242.262 100.464 241.715 100.174 241.012 100.174C240.322 100.174 239.775 100.46 239.371 101.033C238.967 101.606 238.766 102.378 238.766 103.348ZM246.344 103.172H248.316C248.805 103.172 249.179 103.042 249.439 102.781C249.706 102.521 249.84 102.176 249.84 101.746C249.84 101.329 249.7 100.994 249.42 100.74C249.146 100.48 248.753 100.35 248.238 100.35H246.344V103.172ZM245.562 107V99.6855H248.414C249.13 99.6855 249.68 99.8809 250.064 100.271C250.449 100.656 250.641 101.131 250.641 101.697C250.641 102.212 250.51 102.628 250.25 102.947C249.99 103.266 249.703 103.468 249.391 103.553C249.664 103.696 249.863 103.872 249.986 104.08C250.11 104.288 250.211 104.578 250.289 104.949C250.374 105.314 250.432 105.564 250.465 105.701C250.504 105.831 250.569 106.02 250.66 106.268C250.758 106.515 250.875 106.759 251.012 107H250.133C250.022 106.792 249.921 106.57 249.83 106.336C249.745 106.095 249.684 105.9 249.645 105.75C249.605 105.594 249.547 105.346 249.469 105.008C249.384 104.643 249.254 104.357 249.078 104.148C248.909 103.94 248.635 103.836 248.258 103.836H246.344V107H245.562ZM251.168 100.35V99.6855H256.402V100.35H254.176V107H253.395V100.35H251.168ZM259.332 105.623L260.055 105.369C260.491 106.124 261.168 106.502 262.086 106.502C262.594 106.502 263.007 106.378 263.326 106.131C263.645 105.883 263.805 105.545 263.805 105.115C263.805 104.9 263.759 104.712 263.668 104.549C263.577 104.38 263.43 104.233 263.229 104.109C263.033 103.986 262.851 103.888 262.682 103.816C262.512 103.745 262.281 103.66 261.988 103.562C261.754 103.484 261.588 103.429 261.49 103.396C261.393 103.364 261.236 103.305 261.021 103.221C260.813 103.136 260.657 103.061 260.553 102.996C260.455 102.931 260.331 102.843 260.182 102.732C260.032 102.615 259.921 102.498 259.85 102.381C259.785 102.264 259.723 102.124 259.664 101.961C259.612 101.792 259.586 101.613 259.586 101.424C259.586 100.844 259.807 100.382 260.25 100.037C260.693 99.6855 261.285 99.5098 262.027 99.5098C262.594 99.5098 263.085 99.64 263.502 99.9004C263.925 100.161 264.228 100.486 264.41 100.877L263.746 101.111C263.362 100.486 262.783 100.174 262.008 100.174C261.5 100.174 261.103 100.288 260.816 100.516C260.53 100.743 260.387 101.046 260.387 101.424C260.387 101.593 260.426 101.753 260.504 101.902C260.582 102.046 260.667 102.163 260.758 102.254C260.855 102.339 261.008 102.433 261.217 102.537C261.432 102.635 261.598 102.706 261.715 102.752C261.839 102.791 262.037 102.856 262.311 102.947C262.376 102.967 262.424 102.983 262.457 102.996C262.776 103.1 263.043 103.201 263.258 103.299C263.473 103.396 263.694 103.527 263.922 103.689C264.15 103.852 264.319 104.051 264.43 104.285C264.547 104.513 264.605 104.78 264.605 105.086C264.605 105.743 264.374 106.258 263.912 106.629C263.456 106.993 262.841 107.176 262.066 107.176C261.402 107.176 260.839 107.036 260.377 106.756C259.915 106.476 259.566 106.098 259.332 105.623ZM266.021 107V99.6855H270.592V100.35H266.803V102.889H270.221V103.543H266.803V106.336H270.67V107H266.021ZM272.857 103.172H274.83C275.318 103.172 275.693 103.042 275.953 102.781C276.22 102.521 276.354 102.176 276.354 101.746C276.354 101.329 276.214 100.994 275.934 100.74C275.66 100.48 275.266 100.35 274.752 100.35H272.857V103.172ZM272.076 107V99.6855H274.928C275.644 99.6855 276.194 99.8809 276.578 100.271C276.962 100.656 277.154 101.131 277.154 101.697C277.154 102.212 277.024 102.628 276.764 102.947C276.503 103.266 276.217 103.468 275.904 103.553C276.178 103.696 276.376 103.872 276.5 104.08C276.624 104.288 276.725 104.578 276.803 104.949C276.887 105.314 276.946 105.564 276.979 105.701C277.018 105.831 277.083 106.02 277.174 106.268C277.271 106.515 277.389 106.759 277.525 107H276.646C276.536 106.792 276.435 106.57 276.344 106.336C276.259 106.095 276.197 105.9 276.158 105.75C276.119 105.594 276.061 105.346 275.982 105.008C275.898 104.643 275.768 104.357 275.592 104.148C275.423 103.94 275.149 103.836 274.771 103.836H272.857V107H272.076ZM277.643 99.6855H278.502L280.094 104.715C280.146 104.884 280.221 105.132 280.318 105.457C280.416 105.776 280.494 106.033 280.553 106.229H280.592C280.65 106.027 280.729 105.77 280.826 105.457C280.924 105.138 280.999 104.891 281.051 104.715L282.662 99.6855H283.521L281.061 107H280.104L277.643 99.6855ZM284.508 107V99.6855H285.289V107H284.508ZM286.803 103.348C286.803 102.156 287.092 101.219 287.672 100.535C288.251 99.8516 289.003 99.5098 289.928 99.5098C290.501 99.5098 290.986 99.6693 291.383 99.9883C291.786 100.301 292.089 100.675 292.291 101.111L291.627 101.346C291.191 100.564 290.618 100.174 289.908 100.174C289.205 100.174 288.645 100.464 288.229 101.043C287.812 101.616 287.604 102.384 287.604 103.348C287.604 104.324 287.815 105.096 288.238 105.662C288.661 106.222 289.218 106.502 289.908 106.502C290.344 106.502 290.725 106.382 291.051 106.141C291.376 105.893 291.62 105.59 291.783 105.232L292.486 105.457C292.265 105.932 291.943 106.339 291.52 106.678C291.096 107.01 290.566 107.176 289.928 107.176C289.01 107.176 288.258 106.837 287.672 106.16C287.092 105.477 286.803 104.539 286.803 103.348ZM293.775 107V99.6855H298.346V100.35H294.557V102.889H297.975V103.543H294.557V106.336H298.424V107H293.775ZM299.205 105.623L299.928 105.369C300.364 106.124 301.041 106.502 301.959 106.502C302.467 106.502 302.88 106.378 303.199 106.131C303.518 105.883 303.678 105.545 303.678 105.115C303.678 104.9 303.632 104.712 303.541 104.549C303.45 104.38 303.303 104.233 303.102 104.109C302.906 103.986 302.724 103.888 302.555 103.816C302.385 103.745 302.154 103.66 301.861 103.562C301.627 103.484 301.461 103.429 301.363 103.396C301.266 103.364 301.109 103.305 300.895 103.221C300.686 103.136 300.53 103.061 300.426 102.996C300.328 102.931 300.204 102.843 300.055 102.732C299.905 102.615 299.794 102.498 299.723 102.381C299.658 102.264 299.596 102.124 299.537 101.961C299.485 101.792 299.459 101.613 299.459 101.424C299.459 100.844 299.68 100.382 300.123 100.037C300.566 99.6855 301.158 99.5098 301.9 99.5098C302.467 99.5098 302.958 99.64 303.375 99.9004C303.798 100.161 304.101 100.486 304.283 100.877L303.619 101.111C303.235 100.486 302.656 100.174 301.881 100.174C301.373 100.174 300.976 100.288 300.689 100.516C300.403 100.743 300.26 101.046 300.26 101.424C300.26 101.593 300.299 101.753 300.377 101.902C300.455 102.046 300.54 102.163 300.631 102.254C300.729 102.339 300.882 102.433 301.09 102.537C301.305 102.635 301.471 102.706 301.588 102.752C301.712 102.791 301.91 102.856 302.184 102.947C302.249 102.967 302.298 102.983 302.33 102.996C302.649 103.1 302.916 103.201 303.131 103.299C303.346 103.396 303.567 103.527 303.795 103.689C304.023 103.852 304.192 104.051 304.303 104.285C304.42 104.513 304.479 104.78 304.479 105.086C304.479 105.743 304.247 106.258 303.785 106.629C303.329 106.993 302.714 107.176 301.939 107.176C301.275 107.176 300.712 107.036 300.25 106.756C299.788 106.476 299.439 106.098 299.205 105.623ZM308.697 105.154C308.697 105.577 308.834 105.913 309.107 106.16C309.387 106.408 309.745 106.531 310.182 106.531C310.774 106.531 311.311 106.242 311.793 105.662L309.986 103.211C309.602 103.478 309.29 103.764 309.049 104.07C308.814 104.376 308.697 104.738 308.697 105.154ZM307.916 105.164C307.916 104.201 308.473 103.367 309.586 102.664C309.566 102.632 309.534 102.586 309.488 102.527C309.326 102.299 309.208 102.13 309.137 102.02C309.072 101.909 309.01 101.772 308.951 101.609C308.893 101.447 308.863 101.274 308.863 101.092C308.863 100.675 309.02 100.32 309.332 100.027C309.651 99.7344 310.094 99.5879 310.66 99.5879C311.526 99.5879 312.161 99.998 312.564 100.818L311.969 101.082C311.852 100.854 311.676 100.656 311.441 100.486C311.214 100.311 310.969 100.223 310.709 100.223C310.377 100.223 310.117 100.311 309.928 100.486C309.739 100.656 309.645 100.867 309.645 101.121C309.645 101.388 309.837 101.808 310.221 102.381C310.605 102.954 311.259 103.842 312.184 105.047C312.385 104.643 312.535 104.168 312.633 103.621L313.336 103.748C313.225 104.451 313.004 105.089 312.672 105.662L313.697 107H312.799L312.223 106.248C311.65 106.867 310.96 107.176 310.152 107.176C309.443 107.176 308.893 106.984 308.502 106.6C308.111 106.215 307.916 105.737 307.916 105.164ZM317.154 107V99.6855H318.17L319.771 103.621C319.876 103.895 320.016 104.269 320.191 104.744C320.374 105.213 320.468 105.457 320.475 105.477H320.514C320.553 105.379 320.79 104.76 321.227 103.621L322.818 99.6855H323.854V107H323.072V102.869C323.072 102.342 323.105 101.603 323.17 100.652H323.131L322.76 101.629L320.846 106.453H320.162L318.248 101.629L317.857 100.652H317.818C317.896 101.701 317.936 102.439 317.936 102.869V107H317.154ZM325.367 103.348C325.367 102.202 325.644 101.277 326.197 100.574C326.751 99.8646 327.49 99.5098 328.414 99.5098C329.345 99.5098 330.081 99.8613 330.621 100.564C331.168 101.268 331.441 102.199 331.441 103.357C331.441 104.529 331.165 105.46 330.611 106.15C330.064 106.834 329.332 107.176 328.414 107.176C327.49 107.176 326.751 106.831 326.197 106.141C325.644 105.444 325.367 104.513 325.367 103.348ZM326.168 103.348C326.168 104.311 326.37 105.079 326.773 105.652C327.177 106.219 327.724 106.502 328.414 106.502C329.091 106.502 329.632 106.222 330.035 105.662C330.439 105.102 330.641 104.334 330.641 103.357C330.641 102.394 330.445 101.622 330.055 101.043C329.664 100.464 329.117 100.174 328.414 100.174C327.724 100.174 327.177 100.46 326.773 101.033C326.37 101.606 326.168 102.378 326.168 103.348ZM333.746 103.172H335.719C336.207 103.172 336.581 103.042 336.842 102.781C337.109 102.521 337.242 102.176 337.242 101.746C337.242 101.329 337.102 100.994 336.822 100.74C336.549 100.48 336.155 100.35 335.641 100.35H333.746V103.172ZM332.965 107V99.6855H335.816C336.533 99.6855 337.083 99.8809 337.467 100.271C337.851 100.656 338.043 101.131 338.043 101.697C338.043 102.212 337.913 102.628 337.652 102.947C337.392 103.266 337.105 103.468 336.793 103.553C337.066 103.696 337.265 103.872 337.389 104.08C337.512 104.288 337.613 104.578 337.691 104.949C337.776 105.314 337.835 105.564 337.867 105.701C337.906 105.831 337.971 106.02 338.062 106.268C338.16 106.515 338.277 106.759 338.414 107H337.535C337.424 106.792 337.324 106.57 337.232 106.336C337.148 106.095 337.086 105.9 337.047 105.75C337.008 105.594 336.949 105.346 336.871 105.008C336.786 104.643 336.656 104.357 336.48 104.148C336.311 103.94 336.038 103.836 335.66 103.836H333.746V107H332.965ZM339.566 107V99.6855H344.137V100.35H340.348V102.889H343.766V103.543H340.348V106.336H344.215V107H339.566ZM345.709 107V105.838H346.939V107H345.709ZM349.146 107V105.838H350.377V107H349.146ZM352.584 107V105.838H353.814V107H352.584Z" fill="white"/>
</g>
<defs>
<clipPath id="clip0_301_21">
<rect width="400" height="120" fill="white"/>
</clipPath>
</defs>
</svg>
