<svg width="400" height="91" viewBox="0 0 400 91" fill="none" xmlns="http://www.w3.org/2000/svg">
<g clip-path="url(#clip0_301_21)">
<path d="M179 0.4L366 0" stroke="white" stroke-width="3.2"/>
<path d="M82.7585 91.408C78.0652 91.408 74.5665 89.8293 72.2625 86.672C70.0438 83.4293 68.5932 79.4613 67.9105 74.768C67.4838 71.3547 66.8012 67.9413 65.8625 64.528C65.0092 61.1147 63.6012 58 61.6385 55.184C59.7612 52.2827 57.0732 49.9787 53.5745 48.272C50.1612 46.5653 45.6812 45.712 40.1345 45.712H34.6305V72.976C34.6305 77.1573 34.9292 80.1867 35.5265 82.064C36.1238 83.856 37.2332 85.0507 38.8545 85.648C40.4758 86.16 42.7372 86.5867 45.6385 86.928L48.1985 87.184V90.384L29.2545 90H29.1265L10.1825 90.384V87.184L12.7425 86.928C15.7292 86.5867 17.9905 86.16 19.5265 85.648C21.1478 85.0507 22.2572 83.856 22.8545 82.064C23.4518 80.1867 23.7505 77.1573 23.7505 72.976V16.144C23.7505 11.8773 23.4518 8.848 22.8545 7.056C22.2572 5.264 21.1478 4.112 19.5265 3.6C17.9905 3.00266 15.7292 2.53333 12.7425 2.19199L10.1825 1.936V-1.26401L29.1265 -0.880005H47.0465C52.8492 -0.880005 58.2252 -0.197337 63.1745 1.168C68.1238 2.448 72.0918 4.70933 75.0785 7.952C78.1505 11.1947 79.6865 15.7173 79.6865 21.52C79.6865 26.64 78.5345 30.8213 76.2305 34.064C74.0118 37.2213 71.0252 39.6533 67.2705 41.36C63.6012 42.9813 59.5905 44.1333 55.2385 44.816C61.5532 45.2427 66.6732 47.4187 70.5985 51.344C74.6092 55.184 77.1692 60.8587 78.2785 68.368C79.0465 73.1467 79.9852 76.9013 81.0945 79.632C82.2892 82.2773 83.5692 84.1547 84.9345 85.264C86.3852 86.288 87.8358 86.8 89.2865 86.8C90.2252 86.8 91.1212 86.6293 91.9745 86.288C92.9132 85.9467 93.7238 85.6053 94.4065 85.264L95.3025 88.464C93.9372 89.1467 92.1025 89.7867 89.7985 90.384C87.4945 91.0667 85.1478 91.408 82.7585 91.408ZM47.3025 2.448H34.6305V42.256H45.3825C53.5745 42.256 59.2918 40.592 62.5345 37.264C65.8625 33.936 67.5265 28.944 67.5265 22.288C67.5265 15.9733 66.0332 11.1093 63.0465 7.696C60.0598 4.19733 54.8118 2.448 47.3025 2.448ZM99.1825 90.384V87.184L101.743 86.928C104.729 86.5867 106.991 86.16 108.527 85.648C110.148 85.0507 111.257 83.856 111.855 82.064C112.452 80.1867 112.751 77.1573 112.751 72.976V16.144C112.751 11.8773 112.452 8.848 111.855 7.056C111.257 5.264 110.148 4.112 108.527 3.6C106.991 3.00266 104.729 2.53333 101.743 2.19199L99.1825 1.936V-1.26401L118.127 -0.880005L135.151 -1.26401V2.064L132.591 2.31999C130.031 2.57599 128.068 3.04533 126.703 3.728C125.337 4.41066 124.399 5.69066 123.887 7.56799C123.375 9.44533 123.119 12.304 123.119 16.144V50.448L152.559 16.016C154.351 13.8827 155.631 12.048 156.399 10.512C157.252 8.97599 157.679 7.65333 157.679 6.544C157.679 4.24 155.716 2.87466 151.791 2.448L147.695 2.064V-1.26401L164.079 -0.880005L179.567 -1.26401V1.936L175.215 2.448C172.655 2.78933 170.223 3.81333 167.919 5.52C165.7 7.22666 163.353 9.53066 160.879 12.432L140.911 35.984L165.487 68.112C168.388 71.8667 170.991 75.1093 173.295 77.84C175.684 80.5707 178.073 82.704 180.463 84.24C182.937 85.6907 185.711 86.5867 188.783 86.928L191.471 87.184V90.384L172.015 90L153.071 90.384V87.184L154.991 87.056C159.087 86.8 161.135 85.5627 161.135 83.344C161.135 81.6373 159.983 79.2907 157.679 76.304L133.359 44.944L123.119 56.976V72.976C123.119 77.1573 123.375 80.1867 123.887 82.064C124.484 83.856 125.508 85.0507 126.958 85.648C128.409 86.16 130.5 86.5867 133.231 86.928L135.535 87.184V90.384L118.255 90H118.127L99.1825 90.384Z" fill="white"/>
<path d="M191 88.75L366 90.75" stroke="white" stroke-width="3.2"/>
<path d="M209.273 27.8125H214.008C215.18 27.8125 216.078 27.5 216.703 26.875C217.344 26.25 217.664 25.4219 217.664 24.3906C217.664 23.3906 217.328 22.5859 216.656 21.9766C216 21.3516 215.055 21.0391 213.82 21.0391H209.273V27.8125ZM207.398 37V19.4453H214.242C215.961 19.4453 217.281 19.9141 218.203 20.8516C219.125 21.7734 219.586 22.9141 219.586 24.2734C219.586 25.5078 219.273 26.5078 218.648 27.2734C218.023 28.0391 217.336 28.5234 216.586 28.7266C217.242 29.0703 217.719 29.4922 218.016 29.9922C218.312 30.4922 218.555 31.1875 218.742 32.0781C218.945 32.9531 219.086 33.5547 219.164 33.8828C219.258 34.1953 219.414 34.6484 219.633 35.2422C219.867 35.8359 220.148 36.4219 220.477 37H218.367C218.102 36.5 217.859 35.9688 217.641 35.4062C217.438 34.8281 217.289 34.3594 217.195 34C217.102 33.625 216.961 33.0312 216.773 32.2188C216.57 31.3438 216.258 30.6562 215.836 30.1562C215.43 29.6562 214.773 29.4062 213.867 29.4062H209.273V37H207.398ZM223.242 37V19.4453H234.211V21.0391H225.117V27.1328H233.32V28.7031H225.117V35.4062H234.398V37H223.242ZM239.883 30.4375H246.492L244.43 24.5312C244.305 24.1719 244.102 23.6016 243.82 22.8203C243.555 22.0234 243.367 21.4688 243.258 21.1562H243.117C242.461 23.0781 242.078 24.2031 241.969 24.5312L239.883 30.4375ZM235.477 37L242.039 19.4453H244.336L250.898 37H248.836L247.055 31.9375H239.32L237.539 37H235.477ZM253.242 37V19.4453H255.117V35.4062H263.461V37H253.242ZM262.992 21.0391V19.4453H275.555V21.0391H270.211V37H268.336V21.0391H262.992ZM276.68 28.2344C276.68 25.4844 277.344 23.2656 278.672 21.5781C280 19.875 281.773 19.0234 283.992 19.0234C286.227 19.0234 287.992 19.8672 289.289 21.5547C290.602 23.2422 291.258 25.4766 291.258 28.2578C291.258 31.0703 290.594 33.3047 289.266 34.9609C287.953 36.6016 286.195 37.4219 283.992 37.4219C281.773 37.4219 280 36.5938 278.672 34.9375C277.344 33.2656 276.68 31.0312 276.68 28.2344ZM278.602 28.2344C278.602 30.5469 279.086 32.3906 280.055 33.7656C281.023 35.125 282.336 35.8047 283.992 35.8047C285.617 35.8047 286.914 35.1328 287.883 33.7891C288.852 32.4453 289.336 30.6016 289.336 28.2578C289.336 25.9453 288.867 24.0938 287.93 22.7031C286.992 21.3125 285.68 20.6172 283.992 20.6172C282.336 20.6172 281.023 21.3047 280.055 22.6797C279.086 24.0547 278.602 25.9062 278.602 28.2344ZM296.789 27.8125H301.523C302.695 27.8125 303.594 27.5 304.219 26.875C304.859 26.25 305.18 25.4219 305.18 24.3906C305.18 23.3906 304.844 22.5859 304.172 21.9766C303.516 21.3516 302.57 21.0391 301.336 21.0391H296.789V27.8125ZM294.914 37V19.4453H301.758C303.477 19.4453 304.797 19.9141 305.719 20.8516C306.641 21.7734 307.102 22.9141 307.102 24.2734C307.102 25.5078 306.789 26.5078 306.164 27.2734C305.539 28.0391 304.852 28.5234 304.102 28.7266C304.758 29.0703 305.234 29.4922 305.531 29.9922C305.828 30.4922 306.07 31.1875 306.258 32.0781C306.461 32.9531 306.602 33.5547 306.68 33.8828C306.773 34.1953 306.93 34.6484 307.148 35.2422C307.383 35.8359 307.664 36.4219 307.992 37H305.883C305.617 36.5 305.375 35.9688 305.156 35.4062C304.953 34.8281 304.805 34.3594 304.711 34C304.617 33.625 304.477 33.0312 304.289 32.2188C304.086 31.3438 303.773 30.6562 303.352 30.1562C302.945 29.6562 302.289 29.4062 301.383 29.4062H296.789V37H294.914ZM309.258 33.6953L310.992 33.0859C312.039 34.8984 313.664 35.8047 315.867 35.8047C317.086 35.8047 318.078 35.5078 318.844 34.9141C319.609 34.3203 319.992 33.5078 319.992 32.4766C319.992 31.9609 319.883 31.5078 319.664 31.1172C319.445 30.7109 319.094 30.3594 318.609 30.0625C318.141 29.7656 317.703 29.5312 317.297 29.3594C316.891 29.1875 316.336 28.9844 315.633 28.75C315.07 28.5625 314.672 28.4297 314.438 28.3516C314.203 28.2734 313.828 28.1328 313.312 27.9297C312.812 27.7266 312.438 27.5469 312.188 27.3906C311.953 27.2344 311.656 27.0234 311.297 26.7578C310.938 26.4766 310.672 26.1953 310.5 25.9141C310.344 25.6328 310.195 25.2969 310.055 24.9062C309.93 24.5 309.867 24.0703 309.867 23.6172C309.867 22.2266 310.398 21.1172 311.461 20.2891C312.523 19.4453 313.945 19.0234 315.727 19.0234C317.086 19.0234 318.266 19.3359 319.266 19.9609C320.281 20.5859 321.008 21.3672 321.445 22.3047L319.852 22.8672C318.93 21.3672 317.539 20.6172 315.68 20.6172C314.461 20.6172 313.508 20.8906 312.82 21.4375C312.133 21.9844 311.789 22.7109 311.789 23.6172C311.789 24.0234 311.883 24.4062 312.07 24.7656C312.258 25.1094 312.461 25.3906 312.68 25.6094C312.914 25.8125 313.281 26.0391 313.781 26.2891C314.297 26.5234 314.695 26.6953 314.977 26.8047C315.273 26.8984 315.75 27.0547 316.406 27.2734C316.562 27.3203 316.68 27.3594 316.758 27.3906C317.523 27.6406 318.164 27.8828 318.68 28.1172C319.195 28.3516 319.727 28.6641 320.273 29.0547C320.82 29.4453 321.227 29.9219 321.492 30.4844C321.773 31.0312 321.914 31.6719 321.914 32.4062C321.914 33.9844 321.359 35.2188 320.25 36.1094C319.156 36.9844 317.68 37.4219 315.82 37.4219C314.227 37.4219 312.875 37.0859 311.766 36.4141C310.656 35.7422 309.82 34.8359 309.258 33.6953ZM332.039 32.5703C332.039 33.5859 332.367 34.3906 333.023 34.9844C333.695 35.5781 334.555 35.875 335.602 35.875C337.023 35.875 338.312 35.1797 339.469 33.7891L335.133 27.9062C334.211 28.5469 333.461 29.2344 332.883 29.9688C332.32 30.7031 332.039 31.5703 332.039 32.5703ZM330.164 32.5938C330.164 30.2812 331.5 28.2812 334.172 26.5938C334.125 26.5156 334.047 26.4062 333.938 26.2656C333.547 25.7188 333.266 25.3125 333.094 25.0469C332.938 24.7812 332.789 24.4531 332.648 24.0625C332.508 23.6719 332.438 23.2578 332.438 22.8203C332.438 21.8203 332.812 20.9688 333.562 20.2656C334.328 19.5625 335.391 19.2109 336.75 19.2109C338.828 19.2109 340.352 20.1953 341.32 22.1641L339.891 22.7969C339.609 22.25 339.188 21.7734 338.625 21.3672C338.078 20.9453 337.492 20.7344 336.867 20.7344C336.07 20.7344 335.445 20.9453 334.992 21.3672C334.539 21.7734 334.312 22.2812 334.312 22.8906C334.312 23.5312 334.773 24.5391 335.695 25.9141C336.617 27.2891 338.188 29.4219 340.406 32.3125C340.891 31.3438 341.25 30.2031 341.484 28.8906L343.172 29.1953C342.906 30.8828 342.375 32.4141 341.578 33.7891L344.039 37H341.883L340.5 35.1953C339.125 36.6797 337.469 37.4219 335.531 37.4219C333.828 37.4219 332.508 36.9609 331.57 36.0391C330.633 35.1172 330.164 33.9688 330.164 32.5938ZM192.691 58.2344C192.691 55.375 193.387 53.125 194.777 51.4844C196.168 49.8438 197.973 49.0234 200.191 49.0234C201.566 49.0234 202.73 49.4062 203.684 50.1719C204.652 50.9219 205.379 51.8203 205.863 52.8672L204.27 53.4297C203.223 51.5547 201.848 50.6172 200.145 50.6172C198.457 50.6172 197.113 51.3125 196.113 52.7031C195.113 54.0781 194.613 55.9219 194.613 58.2344C194.613 60.5781 195.121 62.4297 196.137 63.7891C197.152 65.1328 198.488 65.8047 200.145 65.8047C201.191 65.8047 202.105 65.5156 202.887 64.9375C203.668 64.3438 204.254 63.6172 204.645 62.7578L206.332 63.2969C205.801 64.4375 205.027 65.4141 204.012 66.2266C202.996 67.0234 201.723 67.4219 200.191 67.4219C197.988 67.4219 196.184 66.6094 194.777 64.9844C193.387 63.3438 192.691 61.0938 192.691 58.2344ZM208.207 58.2344C208.207 55.4844 208.871 53.2656 210.199 51.5781C211.527 49.875 213.301 49.0234 215.52 49.0234C217.754 49.0234 219.52 49.8672 220.816 51.5547C222.129 53.2422 222.785 55.4766 222.785 58.2578C222.785 61.0703 222.121 63.3047 220.793 64.9609C219.48 66.6016 217.723 67.4219 215.52 67.4219C213.301 67.4219 211.527 66.5938 210.199 64.9375C208.871 63.2656 208.207 61.0312 208.207 58.2344ZM210.129 58.2344C210.129 60.5469 210.613 62.3906 211.582 63.7656C212.551 65.125 213.863 65.8047 215.52 65.8047C217.145 65.8047 218.441 65.1328 219.41 63.7891C220.379 62.4453 220.863 60.6016 220.863 58.2578C220.863 55.9453 220.395 54.0938 219.457 52.7031C218.52 51.3125 217.207 50.6172 215.52 50.6172C213.863 50.6172 212.551 51.3047 211.582 52.6797C210.613 54.0547 210.129 55.9062 210.129 58.2344ZM226.441 67V49.4453H228.598L235.066 60.6484L237.176 64.3516H237.316C237.129 62.8984 237.035 61.2422 237.035 59.3828V49.4453H238.91V67H236.754L230.262 55.7266L228.176 52.1172H228.082C228.238 53.6797 228.316 55.3281 228.316 57.0625V67H226.441ZM242.285 63.6953L244.02 63.0859C245.066 64.8984 246.691 65.8047 248.895 65.8047C250.113 65.8047 251.105 65.5078 251.871 64.9141C252.637 64.3203 253.02 63.5078 253.02 62.4766C253.02 61.9609 252.91 61.5078 252.691 61.1172C252.473 60.7109 252.121 60.3594 251.637 60.0625C251.168 59.7656 250.73 59.5312 250.324 59.3594C249.918 59.1875 249.363 58.9844 248.66 58.75C248.098 58.5625 247.699 58.4297 247.465 58.3516C247.23 58.2734 246.855 58.1328 246.34 57.9297C245.84 57.7266 245.465 57.5469 245.215 57.3906C244.98 57.2344 244.684 57.0234 244.324 56.7578C243.965 56.4766 243.699 56.1953 243.527 55.9141C243.371 55.6328 243.223 55.2969 243.082 54.9062C242.957 54.5 242.895 54.0703 242.895 53.6172C242.895 52.2266 243.426 51.1172 244.488 50.2891C245.551 49.4453 246.973 49.0234 248.754 49.0234C250.113 49.0234 251.293 49.3359 252.293 49.9609C253.309 50.5859 254.035 51.3672 254.473 52.3047L252.879 52.8672C251.957 51.3672 250.566 50.6172 248.707 50.6172C247.488 50.6172 246.535 50.8906 245.848 51.4375C245.16 51.9844 244.816 52.7109 244.816 53.6172C244.816 54.0234 244.91 54.4062 245.098 54.7656C245.285 55.1094 245.488 55.3906 245.707 55.6094C245.941 55.8125 246.309 56.0391 246.809 56.2891C247.324 56.5234 247.723 56.6953 248.004 56.8047C248.301 56.8984 248.777 57.0547 249.434 57.2734C249.59 57.3203 249.707 57.3594 249.785 57.3906C250.551 57.6406 251.191 57.8828 251.707 58.1172C252.223 58.3516 252.754 58.6641 253.301 59.0547C253.848 59.4453 254.254 59.9219 254.52 60.4844C254.801 61.0312 254.941 61.6719 254.941 62.4062C254.941 63.9844 254.387 65.2188 253.277 66.1094C252.184 66.9844 250.707 67.4219 248.848 67.4219C247.254 67.4219 245.902 67.0859 244.793 66.4141C243.684 65.7422 242.848 64.8359 242.285 63.6953ZM258.293 60.6484V49.4453H260.168V60.6016C260.168 62.3516 260.566 63.6562 261.363 64.5156C262.176 65.375 263.215 65.8047 264.48 65.8047C265.777 65.8047 266.824 65.3672 267.621 64.4922C268.434 63.6016 268.84 62.3047 268.84 60.6016V49.4453H270.715V60.6484C270.715 62.7734 270.176 64.4375 269.098 65.6406C268.02 66.8281 266.48 67.4219 264.48 67.4219C262.527 67.4219 261.004 66.8359 259.91 65.6641C258.832 64.4922 258.293 62.8203 258.293 60.6484ZM275.52 67V49.4453H277.395V65.4062H285.738V67H275.52ZM285.27 51.0391V49.4453H297.832V51.0391H292.488V67H290.613V51.0391H285.27ZM301.816 60.4375H308.426L306.363 54.5312C306.238 54.1719 306.035 53.6016 305.754 52.8203C305.488 52.0234 305.301 51.4688 305.191 51.1562H305.051C304.395 53.0781 304.012 54.2031 303.902 54.5312L301.816 60.4375ZM297.41 67L303.973 49.4453H306.27L312.832 67H310.77L308.988 61.9375H301.254L299.473 67H297.41ZM315.176 67V49.4453H317.332L323.801 60.6484L325.91 64.3516H326.051C325.863 62.8984 325.77 61.2422 325.77 59.3828V49.4453H327.645V67H325.488L318.996 55.7266L316.91 52.1172H316.816C316.973 53.6797 317.051 55.3281 317.051 57.0625V67H315.176ZM330.363 51.0391V49.4453H342.926V51.0391H337.582V67H335.707V51.0391H330.363ZM343.91 63.6953L345.645 63.0859C346.691 64.8984 348.316 65.8047 350.52 65.8047C351.738 65.8047 352.73 65.5078 353.496 64.9141C354.262 64.3203 354.645 63.5078 354.645 62.4766C354.645 61.9609 354.535 61.5078 354.316 61.1172C354.098 60.7109 353.746 60.3594 353.262 60.0625C352.793 59.7656 352.355 59.5312 351.949 59.3594C351.543 59.1875 350.988 58.9844 350.285 58.75C349.723 58.5625 349.324 58.4297 349.09 58.3516C348.855 58.2734 348.48 58.1328 347.965 57.9297C347.465 57.7266 347.09 57.5469 346.84 57.3906C346.605 57.2344 346.309 57.0234 345.949 56.7578C345.59 56.4766 345.324 56.1953 345.152 55.9141C344.996 55.6328 344.848 55.2969 344.707 54.9062C344.582 54.5 344.52 54.0703 344.52 53.6172C344.52 52.2266 345.051 51.1172 346.113 50.2891C347.176 49.4453 348.598 49.0234 350.379 49.0234C351.738 49.0234 352.918 49.3359 353.918 49.9609C354.934 50.5859 355.66 51.3672 356.098 52.3047L354.504 52.8672C353.582 51.3672 352.191 50.6172 350.332 50.6172C349.113 50.6172 348.16 50.8906 347.473 51.4375C346.785 51.9844 346.441 52.7109 346.441 53.6172C346.441 54.0234 346.535 54.4062 346.723 54.7656C346.91 55.1094 347.113 55.3906 347.332 55.6094C347.566 55.8125 347.934 56.0391 348.434 56.2891C348.949 56.5234 349.348 56.6953 349.629 56.8047C349.926 56.8984 350.402 57.0547 351.059 57.2734C351.215 57.3203 351.332 57.3594 351.41 57.3906C352.176 57.6406 352.816 57.8828 353.332 58.1172C353.848 58.3516 354.379 58.6641 354.926 59.0547C355.473 59.4453 355.879 59.9219 356.145 60.4844C356.426 61.0312 356.566 61.6719 356.566 62.4062C356.566 63.9844 356.012 65.2188 354.902 66.1094C353.809 66.9844 352.332 67.4219 350.473 67.4219C348.879 67.4219 347.527 67.0859 346.418 66.4141C345.309 65.7422 344.473 64.8359 343.91 63.6953Z" fill="white"/>
</g>
<defs>
<clipPath id="clip0_301_21">
<rect width="400" height="90.75" fill="white"/>
</clipPath>
</defs>
</svg>
