<svg xmlns="http://www.w3.org/2000/svg" xmlns:xlink="http://www.w3.org/1999/xlink" width="96" zoomAndPan="magnify" viewBox="0 0 72 72" height="96" preserveAspectRatio="xMidYMid meet" version="1.0"><defs><g/></defs><rect x="-7.2" width="86.4" fill="#ffffff" y="-7.2" height="86.4" fill-opacity="1"/><rect x="-7.2" width="86.4" fill="#ffffff" y="-7.2" height="86.4" fill-opacity="1"/><g fill="#000000" fill-opacity="1"><g transform="translate(22.019181, 45.007917)"><g><path d="M 8.40625 -6.453125 C 9.75 -7.1875 10.515625 -8.578125 10.515625 -10.0625 C 10.515625 -12.21875 8.953125 -13.859375 5.953125 -13.859375 C 5.25 -13.859375 4.375 -13.78125 3.515625 -13.78125 C 2.71875 -13.78125 1.984375 -13.828125 1.046875 -13.90625 L 1.046875 -13.78125 C 2.078125 -13.625 2.578125 -13.328125 2.65625 -12.265625 C 2.75 -10.734375 2.75 -8.25 2.75 -6.9375 C 2.75 -4.96875 2.734375 -3.453125 2.640625 -1.71875 C 2.578125 -0.671875 2.0625 -0.265625 1.015625 -0.09375 L 1.015625 0.015625 C 2 -0.0625 2.859375 -0.09375 3.640625 -0.09375 C 4.421875 -0.09375 5.28125 -0.0625 6.265625 0.015625 L 6.265625 -0.09375 C 5.203125 -0.296875 4.703125 -0.671875 4.640625 -1.71875 C 4.546875 -3.234375 4.53125 -4.390625 4.53125 -5.9375 C 4.9375 -5.90625 5.46875 -5.859375 5.9375 -5.859375 C 6.171875 -5.859375 6.375 -5.875 6.59375 -5.90625 C 9.71875 -1.265625 8.84375 0 14.265625 0 L 14.265625 -0.109375 C 12.09375 -0.15625 10.9375 -2.25 8.40625 -6.453125 Z M 5.71875 -6.453125 C 5.25 -6.453125 4.859375 -6.515625 4.53125 -6.578125 L 4.53125 -6.9375 C 4.53125 -8.890625 4.53125 -10.234375 4.640625 -13.046875 C 5.015625 -13.09375 5.359375 -13.125 5.71875 -13.125 C 7.84375 -13.125 8.703125 -11.453125 8.703125 -9.78125 C 8.703125 -8.4375 8.15625 -6.453125 5.71875 -6.453125 Z M 5.71875 -6.453125 "/></g></g></g><g fill="#000000" fill-opacity="1"><g transform="translate(34.699725, 45.007917)"><g><path d="M 6.75 -7.609375 L 11.453125 -12.25 C 12.265625 -13.03125 12.953125 -13.625 13.625 -13.78125 L 13.625 -13.90625 C 12.859375 -13.828125 12.28125 -13.78125 11.5625 -13.78125 C 10.859375 -13.78125 9.984375 -13.84375 9.46875 -13.90625 L 9.46875 -13.78125 C 10.640625 -13.59375 10.90625 -13 10.0625 -12.125 L 4.875 -6.921875 C 10.625 -1.0625 9.40625 0 15.234375 0 L 15.234375 -0.109375 C 12.28125 -0.359375 12.0625 -2 6.75 -7.609375 Z M 4.640625 -1.734375 C 4.53125 -3.59375 4.53125 -4.859375 4.53125 -6.9375 C 4.53125 -9.03125 4.53125 -10.296875 4.640625 -12.140625 C 4.703125 -13.171875 5.203125 -13.59375 6.265625 -13.765625 L 6.265625 -13.875 C 5.28125 -13.8125 4.421875 -13.765625 3.640625 -13.765625 C 2.859375 -13.765625 2 -13.8125 1.015625 -13.875 L 1.015625 -13.765625 C 2.0625 -13.59375 2.578125 -13.171875 2.640625 -12.125 C 2.734375 -10.390625 2.75 -8.90625 2.75 -6.9375 C 2.75 -4.96875 2.734375 -3.484375 2.640625 -1.75 C 2.578125 -0.71875 2.0625 -0.296875 1.015625 -0.109375 L 1.015625 0 C 2 -0.078125 2.859375 -0.109375 3.640625 -0.109375 C 4.421875 -0.109375 5.28125 -0.078125 6.265625 0 L 6.265625 -0.109375 C 5.203125 -0.296875 4.703125 -0.6875 4.640625 -1.734375 Z M 4.640625 -1.734375 "/></g></g></g></svg>