<svg xmlns="http://www.w3.org/2000/svg" xmlns:xlink="http://www.w3.org/1999/xlink" width="500" zoomAndPan="magnify" viewBox="0 0 375 374.999991" height="500" preserveAspectRatio="xMidYMid meet" version="1.0"><defs><filter x="0%" y="0%" width="100%" height="100%" id="81b157cb3f"><feColorMatrix values="0 0 0 0 1 0 0 0 0 1 0 0 0 0 1 0 0 0 1 0" color-interpolation-filters="sRGB"/></filter><g/><mask id="e1a1a36c92"><g filter="url(#81b157cb3f)"><rect x="-37.5" width="450" fill="#000000" y="-37.499999" height="449.999989" fill-opacity="0.79"/></g></mask><clipPath id="6128c6289a"><rect x="0" width="248" y="0" height="10"/></clipPath></defs><rect x="-37.5" width="450" fill="#ffffff" y="-37.499999" height="449.999989" fill-opacity="1"/><rect x="-37.5" width="450" fill="#ffffff" y="-37.499999" height="449.999989" fill-opacity="1"/><g fill="#000000" fill-opacity="1"><g transform="translate(37.500002, 207.208999)"><g><path d="M 43.765625 -33.625 C 50.796875 -37.453125 54.71875 -44.671875 54.71875 -52.40625 C 54.71875 -63.640625 46.578125 -72.1875 31.015625 -72.1875 C 27.3125 -72.1875 22.78125 -71.78125 18.265625 -71.78125 C 14.15625 -71.78125 10.34375 -71.984375 5.421875 -72.375 L 5.421875 -71.78125 C 10.84375 -70.96875 13.453125 -69.375 13.859375 -63.84375 C 14.359375 -55.921875 14.359375 -42.96875 14.359375 -36.140625 C 14.359375 -25.90625 14.25 -17.96875 13.75 -8.9375 C 13.453125 -3.515625 10.734375 -1.40625 5.328125 -0.5 L 5.328125 0.09375 C 10.4375 -0.296875 14.859375 -0.5 18.96875 -0.5 C 22.984375 -0.5 27.5 -0.296875 32.625 0.09375 L 32.625 -0.5 C 27.109375 -1.5 24.5 -3.515625 24.1875 -8.9375 C 23.6875 -16.859375 23.59375 -22.890625 23.59375 -30.921875 C 25.703125 -30.71875 28.515625 -30.515625 30.921875 -30.515625 C 32.125 -30.515625 33.234375 -30.625 34.328125 -30.71875 C 50.59375 -6.625 46.078125 0 74.296875 0 L 74.296875 -0.609375 C 62.9375 -0.796875 56.921875 -11.75 43.765625 -33.625 Z M 29.8125 -33.625 C 27.3125 -33.625 25.296875 -33.9375 23.59375 -34.234375 L 23.59375 -36.140625 C 23.59375 -46.28125 23.59375 -53.3125 24.1875 -67.96875 C 26.109375 -68.171875 27.90625 -68.359375 29.8125 -68.359375 C 40.859375 -68.359375 45.28125 -59.625 45.28125 -50.890625 C 45.28125 -43.96875 42.46875 -33.625 29.8125 -33.625 Z M 29.8125 -33.625 "/></g></g></g><g fill="#000000" fill-opacity="1"><g transform="translate(103.544507, 207.208999)"><g><path d="M 35.140625 -39.65625 L 59.625 -63.75 C 63.84375 -67.859375 67.46875 -70.96875 70.96875 -71.78125 L 70.96875 -72.375 C 66.953125 -71.984375 63.953125 -71.78125 60.234375 -71.78125 C 56.515625 -71.78125 52 -72.078125 49.296875 -72.375 L 49.296875 -71.78125 C 55.421875 -70.78125 56.828125 -67.65625 52.40625 -63.140625 L 25.40625 -36.046875 C 55.3125 -5.515625 48.984375 0 79.3125 0 L 79.3125 -0.609375 C 63.953125 -1.90625 62.84375 -10.4375 35.140625 -39.65625 Z M 24.1875 -9.03125 C 23.59375 -18.671875 23.59375 -25.296875 23.59375 -36.140625 C 23.59375 -46.984375 23.59375 -53.609375 24.1875 -63.25 C 24.5 -68.5625 27.109375 -70.78125 32.625 -71.671875 L 32.625 -72.28125 C 27.5 -71.875 22.984375 -71.671875 18.96875 -71.671875 C 14.859375 -71.671875 10.4375 -71.875 5.328125 -72.28125 L 5.328125 -71.671875 C 10.734375 -70.78125 13.453125 -68.5625 13.75 -63.140625 C 14.25 -54.109375 14.359375 -46.375 14.359375 -36.140625 C 14.359375 -25.90625 14.25 -18.171875 13.75 -9.140625 C 13.453125 -3.71875 10.734375 -1.5 5.328125 -0.609375 L 5.328125 0 C 10.4375 -0.40625 14.859375 -0.609375 18.96875 -0.609375 C 22.984375 -0.609375 27.5 -0.40625 32.625 0 L 32.625 -0.609375 C 27.109375 -1.5 24.5 -3.609375 24.1875 -9.03125 Z M 24.1875 -9.03125 "/></g></g></g><path stroke-linecap="butt" transform="matrix(0.75, 0, 0, 0.75, 153.542397, 134.794064)" fill="none" stroke-linejoin="miter" d="M 0.000762577 0.99854 L 226.459111 0.99854 " stroke="#000000" stroke-width="2" stroke-opacity="1" stroke-miterlimit="4"/><path stroke-linecap="butt" transform="matrix(0.75, 0, 0, 0.75, 163.642244, 206.229303)" fill="none" stroke-linejoin="miter" d="M -0.00215887 1.001554 L 212.992647 1.001554 " stroke="#000000" stroke-width="2" stroke-opacity="1" stroke-miterlimit="4"/><g fill="#000000" fill-opacity="1"><g transform="translate(189.496341, 164.733865)"><g><path d="M 8.96875 0 L 6.546875 -3.40625 C 6.273438 -3.375 5.992188 -3.359375 5.703125 -3.359375 L 2.84375 -3.359375 L 2.84375 0 L 1.734375 0 L 1.734375 -10.609375 L 5.703125 -10.609375 C 7.054688 -10.609375 8.113281 -10.285156 8.875 -9.640625 C 9.644531 -8.992188 10.03125 -8.101562 10.03125 -6.96875 C 10.03125 -6.144531 9.820312 -5.445312 9.40625 -4.875 C 8.988281 -4.300781 8.390625 -3.890625 7.609375 -3.640625 L 10.203125 0 Z M 5.671875 -4.3125 C 6.722656 -4.3125 7.523438 -4.546875 8.078125 -5.015625 C 8.628906 -5.484375 8.90625 -6.132812 8.90625 -6.96875 C 8.90625 -7.832031 8.628906 -8.492188 8.078125 -8.953125 C 7.523438 -9.410156 6.722656 -9.640625 5.671875 -9.640625 L 2.84375 -9.640625 L 2.84375 -4.3125 Z M 5.671875 -4.3125 "/></g></g></g><g fill="#000000" fill-opacity="1"><g transform="translate(202.002943, 164.733865)"><g><path d="M 9.234375 -0.96875 L 9.234375 0 L 1.734375 0 L 1.734375 -10.609375 L 9 -10.609375 L 9 -9.640625 L 2.84375 -9.640625 L 2.84375 -5.859375 L 8.34375 -5.859375 L 8.34375 -4.90625 L 2.84375 -4.90625 L 2.84375 -0.96875 Z M 9.234375 -0.96875 "/></g></g></g><g fill="#000000" fill-opacity="1"><g transform="translate(213.690971, 164.733865)"><g><path d="M 8.375 -2.828125 L 2.46875 -2.828125 L 1.203125 0 L 0.03125 0 L 4.875 -10.609375 L 5.984375 -10.609375 L 10.84375 0 L 9.65625 0 Z M 7.96875 -3.75 L 5.421875 -9.4375 L 2.875 -3.75 Z M 7.96875 -3.75 "/></g></g></g><g fill="#000000" fill-opacity="1"><g transform="translate(226.106621, 164.733865)"><g><path d="M 1.734375 -10.609375 L 2.84375 -10.609375 L 2.84375 -0.96875 L 8.796875 -0.96875 L 8.796875 0 L 1.734375 0 Z M 1.734375 -10.609375 "/></g></g></g><g fill="#000000" fill-opacity="1"><g transform="translate(236.581953, 164.733865)"><g><path d="M 3.796875 -9.640625 L 0.0625 -9.640625 L 0.0625 -10.609375 L 8.640625 -10.609375 L 8.640625 -9.640625 L 4.90625 -9.640625 L 4.90625 0 L 3.796875 0 Z M 3.796875 -9.640625 "/></g></g></g><g fill="#000000" fill-opacity="1"><g transform="translate(246.8299, 164.733865)"><g><path d="M 6.359375 0.09375 C 5.316406 0.09375 4.367188 -0.140625 3.515625 -0.609375 C 2.660156 -1.078125 1.988281 -1.722656 1.5 -2.546875 C 1.019531 -3.367188 0.78125 -4.289062 0.78125 -5.3125 C 0.78125 -6.320312 1.019531 -7.238281 1.5 -8.0625 C 1.988281 -8.882812 2.660156 -9.53125 3.515625 -10 C 4.367188 -10.46875 5.316406 -10.703125 6.359375 -10.703125 C 7.410156 -10.703125 8.359375 -10.46875 9.203125 -10 C 10.046875 -9.539062 10.707031 -8.894531 11.1875 -8.0625 C 11.675781 -7.238281 11.921875 -6.320312 11.921875 -5.3125 C 11.921875 -4.289062 11.675781 -3.363281 11.1875 -2.53125 C 10.707031 -1.707031 10.046875 -1.0625 9.203125 -0.59375 C 8.359375 -0.132812 7.410156 0.09375 6.359375 0.09375 Z M 6.359375 -0.90625 C 7.203125 -0.90625 7.960938 -1.09375 8.640625 -1.46875 C 9.316406 -1.851562 9.847656 -2.378906 10.234375 -3.046875 C 10.617188 -3.722656 10.8125 -4.476562 10.8125 -5.3125 C 10.8125 -6.132812 10.617188 -6.878906 10.234375 -7.546875 C 9.847656 -8.222656 9.316406 -8.75 8.640625 -9.125 C 7.960938 -9.507812 7.203125 -9.703125 6.359375 -9.703125 C 5.523438 -9.703125 4.765625 -9.507812 4.078125 -9.125 C 3.398438 -8.75 2.863281 -8.222656 2.46875 -7.546875 C 2.082031 -6.878906 1.890625 -6.132812 1.890625 -5.3125 C 1.890625 -4.476562 2.082031 -3.722656 2.46875 -3.046875 C 2.863281 -2.378906 3.398438 -1.851562 4.078125 -1.46875 C 4.765625 -1.09375 5.523438 -0.90625 6.359375 -0.90625 Z M 6.359375 -0.90625 "/></g></g></g><g fill="#000000" fill-opacity="1"><g transform="translate(261.094918, 164.733865)"><g><path d="M 8.96875 0 L 6.546875 -3.40625 C 6.273438 -3.375 5.992188 -3.359375 5.703125 -3.359375 L 2.84375 -3.359375 L 2.84375 0 L 1.734375 0 L 1.734375 -10.609375 L 5.703125 -10.609375 C 7.054688 -10.609375 8.113281 -10.285156 8.875 -9.640625 C 9.644531 -8.992188 10.03125 -8.101562 10.03125 -6.96875 C 10.03125 -6.144531 9.820312 -5.445312 9.40625 -4.875 C 8.988281 -4.300781 8.390625 -3.890625 7.609375 -3.640625 L 10.203125 0 Z M 5.671875 -4.3125 C 6.722656 -4.3125 7.523438 -4.546875 8.078125 -5.015625 C 8.628906 -5.484375 8.90625 -6.132812 8.90625 -6.96875 C 8.90625 -7.832031 8.628906 -8.492188 8.078125 -8.953125 C 7.523438 -9.410156 6.722656 -9.640625 5.671875 -9.640625 L 2.84375 -9.640625 L 2.84375 -4.3125 Z M 5.671875 -4.3125 "/></g></g></g><g fill="#000000" fill-opacity="1"><g transform="translate(273.60152, 164.733865)"><g><path d="M 4.65625 0.09375 C 3.863281 0.09375 3.101562 -0.03125 2.375 -0.28125 C 1.65625 -0.539062 1.101562 -0.875 0.71875 -1.28125 L 1.15625 -2.15625 C 1.539062 -1.769531 2.050781 -1.457031 2.6875 -1.21875 C 3.320312 -0.976562 3.976562 -0.859375 4.65625 -0.859375 C 5.601562 -0.859375 6.3125 -1.03125 6.78125 -1.375 C 7.257812 -1.726562 7.5 -2.1875 7.5 -2.75 C 7.5 -3.164062 7.367188 -3.5 7.109375 -3.75 C 6.859375 -4.007812 6.546875 -4.207031 6.171875 -4.34375 C 5.796875 -4.476562 5.273438 -4.628906 4.609375 -4.796875 C 3.804688 -4.992188 3.164062 -5.1875 2.6875 -5.375 C 2.21875 -5.5625 1.8125 -5.847656 1.46875 -6.234375 C 1.132812 -6.617188 0.96875 -7.140625 0.96875 -7.796875 C 0.96875 -8.328125 1.109375 -8.8125 1.390625 -9.25 C 1.671875 -9.6875 2.101562 -10.035156 2.6875 -10.296875 C 3.28125 -10.566406 4.007812 -10.703125 4.875 -10.703125 C 5.488281 -10.703125 6.082031 -10.617188 6.65625 -10.453125 C 7.238281 -10.285156 7.742188 -10.054688 8.171875 -9.765625 L 7.796875 -8.859375 C 7.347656 -9.160156 6.867188 -9.382812 6.359375 -9.53125 C 5.859375 -9.675781 5.363281 -9.75 4.875 -9.75 C 3.945312 -9.75 3.25 -9.566406 2.78125 -9.203125 C 2.3125 -8.847656 2.078125 -8.390625 2.078125 -7.828125 C 2.078125 -7.398438 2.203125 -7.054688 2.453125 -6.796875 C 2.710938 -6.535156 3.035156 -6.335938 3.421875 -6.203125 C 3.816406 -6.066406 4.34375 -5.921875 5 -5.765625 C 5.78125 -5.566406 6.410156 -5.375 6.890625 -5.1875 C 7.367188 -5 7.773438 -4.71875 8.109375 -4.34375 C 8.441406 -3.96875 8.609375 -3.453125 8.609375 -2.796875 C 8.609375 -2.265625 8.460938 -1.78125 8.171875 -1.34375 C 7.890625 -0.90625 7.445312 -0.554688 6.84375 -0.296875 C 6.25 -0.0351562 5.519531 0.09375 4.65625 0.09375 Z M 4.65625 0.09375 "/></g></g></g><g fill="#000000" fill-opacity="1"><g transform="translate(189.496341, 186.818874)"><g><path d="M 6.328125 0.09375 C 5.285156 0.09375 4.34375 -0.132812 3.5 -0.59375 C 2.65625 -1.0625 1.988281 -1.707031 1.5 -2.53125 C 1.019531 -3.363281 0.78125 -4.289062 0.78125 -5.3125 C 0.78125 -6.320312 1.019531 -7.238281 1.5 -8.0625 C 1.988281 -8.894531 2.65625 -9.539062 3.5 -10 C 4.351562 -10.46875 5.300781 -10.703125 6.34375 -10.703125 C 7.132812 -10.703125 7.863281 -10.566406 8.53125 -10.296875 C 9.195312 -10.035156 9.765625 -9.65625 10.234375 -9.15625 L 9.515625 -8.4375 C 8.691406 -9.28125 7.644531 -9.703125 6.375 -9.703125 C 5.539062 -9.703125 4.78125 -9.507812 4.09375 -9.125 C 3.40625 -8.738281 2.863281 -8.210938 2.46875 -7.546875 C 2.082031 -6.878906 1.890625 -6.132812 1.890625 -5.3125 C 1.890625 -4.476562 2.082031 -3.726562 2.46875 -3.0625 C 2.863281 -2.394531 3.40625 -1.867188 4.09375 -1.484375 C 4.78125 -1.097656 5.539062 -0.90625 6.375 -0.90625 C 7.65625 -0.90625 8.703125 -1.332031 9.515625 -2.1875 L 10.234375 -1.46875 C 9.765625 -0.96875 9.191406 -0.582031 8.515625 -0.3125 C 7.847656 -0.0390625 7.117188 0.09375 6.328125 0.09375 Z M 6.328125 0.09375 "/></g></g></g><g fill="#000000" fill-opacity="1"><g transform="translate(201.942309, 186.818874)"><g><path d="M 6.359375 0.09375 C 5.316406 0.09375 4.367188 -0.140625 3.515625 -0.609375 C 2.660156 -1.078125 1.988281 -1.722656 1.5 -2.546875 C 1.019531 -3.367188 0.78125 -4.289062 0.78125 -5.3125 C 0.78125 -6.320312 1.019531 -7.238281 1.5 -8.0625 C 1.988281 -8.882812 2.660156 -9.53125 3.515625 -10 C 4.367188 -10.46875 5.316406 -10.703125 6.359375 -10.703125 C 7.410156 -10.703125 8.359375 -10.46875 9.203125 -10 C 10.046875 -9.539062 10.707031 -8.894531 11.1875 -8.0625 C 11.675781 -7.238281 11.921875 -6.320312 11.921875 -5.3125 C 11.921875 -4.289062 11.675781 -3.363281 11.1875 -2.53125 C 10.707031 -1.707031 10.046875 -1.0625 9.203125 -0.59375 C 8.359375 -0.132812 7.410156 0.09375 6.359375 0.09375 Z M 6.359375 -0.90625 C 7.203125 -0.90625 7.960938 -1.09375 8.640625 -1.46875 C 9.316406 -1.851562 9.847656 -2.378906 10.234375 -3.046875 C 10.617188 -3.722656 10.8125 -4.476562 10.8125 -5.3125 C 10.8125 -6.132812 10.617188 -6.878906 10.234375 -7.546875 C 9.847656 -8.222656 9.316406 -8.75 8.640625 -9.125 C 7.960938 -9.507812 7.203125 -9.703125 6.359375 -9.703125 C 5.523438 -9.703125 4.765625 -9.507812 4.078125 -9.125 C 3.398438 -8.75 2.863281 -8.222656 2.46875 -7.546875 C 2.082031 -6.878906 1.890625 -6.132812 1.890625 -5.3125 C 1.890625 -4.476562 2.082031 -3.722656 2.46875 -3.046875 C 2.863281 -2.378906 3.398438 -1.851562 4.078125 -1.46875 C 4.765625 -1.09375 5.523438 -0.90625 6.359375 -0.90625 Z M 6.359375 -0.90625 "/></g></g></g><g fill="#000000" fill-opacity="1"><g transform="translate(216.207327, 186.818874)"><g><path d="M 10.59375 -10.609375 L 10.59375 0 L 9.671875 0 L 2.84375 -8.609375 L 2.84375 0 L 1.734375 0 L 1.734375 -10.609375 L 2.65625 -10.609375 L 9.484375 -2 L 9.484375 -10.609375 Z M 10.59375 -10.609375 "/></g></g></g><g fill="#000000" fill-opacity="1"><g transform="translate(230.07821, 186.818874)"><g><path d="M 4.65625 0.09375 C 3.863281 0.09375 3.101562 -0.03125 2.375 -0.28125 C 1.65625 -0.539062 1.101562 -0.875 0.71875 -1.28125 L 1.15625 -2.15625 C 1.539062 -1.769531 2.050781 -1.457031 2.6875 -1.21875 C 3.320312 -0.976562 3.976562 -0.859375 4.65625 -0.859375 C 5.601562 -0.859375 6.3125 -1.03125 6.78125 -1.375 C 7.257812 -1.726562 7.5 -2.1875 7.5 -2.75 C 7.5 -3.164062 7.367188 -3.5 7.109375 -3.75 C 6.859375 -4.007812 6.546875 -4.207031 6.171875 -4.34375 C 5.796875 -4.476562 5.273438 -4.628906 4.609375 -4.796875 C 3.804688 -4.992188 3.164062 -5.1875 2.6875 -5.375 C 2.21875 -5.5625 1.8125 -5.847656 1.46875 -6.234375 C 1.132812 -6.617188 0.96875 -7.140625 0.96875 -7.796875 C 0.96875 -8.328125 1.109375 -8.8125 1.390625 -9.25 C 1.671875 -9.6875 2.101562 -10.035156 2.6875 -10.296875 C 3.28125 -10.566406 4.007812 -10.703125 4.875 -10.703125 C 5.488281 -10.703125 6.082031 -10.617188 6.65625 -10.453125 C 7.238281 -10.285156 7.742188 -10.054688 8.171875 -9.765625 L 7.796875 -8.859375 C 7.347656 -9.160156 6.867188 -9.382812 6.359375 -9.53125 C 5.859375 -9.675781 5.363281 -9.75 4.875 -9.75 C 3.945312 -9.75 3.25 -9.566406 2.78125 -9.203125 C 2.3125 -8.847656 2.078125 -8.390625 2.078125 -7.828125 C 2.078125 -7.398438 2.203125 -7.054688 2.453125 -6.796875 C 2.710938 -6.535156 3.035156 -6.335938 3.421875 -6.203125 C 3.816406 -6.066406 4.34375 -5.921875 5 -5.765625 C 5.78125 -5.566406 6.410156 -5.375 6.890625 -5.1875 C 7.367188 -5 7.773438 -4.71875 8.109375 -4.34375 C 8.441406 -3.96875 8.609375 -3.453125 8.609375 -2.796875 C 8.609375 -2.265625 8.460938 -1.78125 8.171875 -1.34375 C 7.890625 -0.90625 7.445312 -0.554688 6.84375 -0.296875 C 6.25 -0.0351562 5.519531 0.09375 4.65625 0.09375 Z M 4.65625 0.09375 "/></g></g></g><g fill="#000000" fill-opacity="1"><g transform="translate(240.947664, 186.818874)"><g><path d="M 6 0.09375 C 4.625 0.09375 3.550781 -0.300781 2.78125 -1.09375 C 2.019531 -1.882812 1.640625 -3.03125 1.640625 -4.53125 L 1.640625 -10.609375 L 2.765625 -10.609375 L 2.765625 -4.578125 C 2.765625 -3.347656 3.039062 -2.425781 3.59375 -1.8125 C 4.144531 -1.207031 4.945312 -0.90625 6 -0.90625 C 7.0625 -0.90625 7.867188 -1.207031 8.421875 -1.8125 C 8.984375 -2.425781 9.265625 -3.347656 9.265625 -4.578125 L 9.265625 -10.609375 L 10.359375 -10.609375 L 10.359375 -4.53125 C 10.359375 -3.03125 9.972656 -1.882812 9.203125 -1.09375 C 8.441406 -0.300781 7.375 0.09375 6 0.09375 Z M 6 0.09375 "/></g></g></g><g fill="#000000" fill-opacity="1"><g transform="translate(254.500212, 186.818874)"><g><path d="M 1.734375 -10.609375 L 2.84375 -10.609375 L 2.84375 -0.96875 L 8.796875 -0.96875 L 8.796875 0 L 1.734375 0 Z M 1.734375 -10.609375 "/></g></g></g><g fill="#000000" fill-opacity="1"><g transform="translate(264.975543, 186.818874)"><g><path d="M 3.796875 -9.640625 L 0.0625 -9.640625 L 0.0625 -10.609375 L 8.640625 -10.609375 L 8.640625 -9.640625 L 4.90625 -9.640625 L 4.90625 0 L 3.796875 0 Z M 3.796875 -9.640625 "/></g></g></g><g fill="#000000" fill-opacity="1"><g transform="translate(275.223491, 186.818874)"><g><path d="M 8.375 -2.828125 L 2.46875 -2.828125 L 1.203125 0 L 0.03125 0 L 4.875 -10.609375 L 5.984375 -10.609375 L 10.84375 0 L 9.65625 0 Z M 7.96875 -3.75 L 5.421875 -9.4375 L 2.875 -3.75 Z M 7.96875 -3.75 "/></g></g></g><g fill="#000000" fill-opacity="1"><g transform="translate(287.639141, 186.818874)"><g><path d="M 10.59375 -10.609375 L 10.59375 0 L 9.671875 0 L 2.84375 -8.609375 L 2.84375 0 L 1.734375 0 L 1.734375 -10.609375 L 2.65625 -10.609375 L 9.484375 -2 L 9.484375 -10.609375 Z M 10.59375 -10.609375 "/></g></g></g><g fill="#000000" fill-opacity="1"><g transform="translate(301.510031, 186.818874)"><g><path d="M 3.796875 -9.640625 L 0.0625 -9.640625 L 0.0625 -10.609375 L 8.640625 -10.609375 L 8.640625 -9.640625 L 4.90625 -9.640625 L 4.90625 0 L 3.796875 0 Z M 3.796875 -9.640625 "/></g></g></g><g fill="#000000" fill-opacity="1"><g transform="translate(311.757984, 186.818874)"><g><path d="M 4.65625 0.09375 C 3.863281 0.09375 3.101562 -0.03125 2.375 -0.28125 C 1.65625 -0.539062 1.101562 -0.875 0.71875 -1.28125 L 1.15625 -2.15625 C 1.539062 -1.769531 2.050781 -1.457031 2.6875 -1.21875 C 3.320312 -0.976562 3.976562 -0.859375 4.65625 -0.859375 C 5.601562 -0.859375 6.3125 -1.03125 6.78125 -1.375 C 7.257812 -1.726562 7.5 -2.1875 7.5 -2.75 C 7.5 -3.164062 7.367188 -3.5 7.109375 -3.75 C 6.859375 -4.007812 6.546875 -4.207031 6.171875 -4.34375 C 5.796875 -4.476562 5.273438 -4.628906 4.609375 -4.796875 C 3.804688 -4.992188 3.164062 -5.1875 2.6875 -5.375 C 2.21875 -5.5625 1.8125 -5.847656 1.46875 -6.234375 C 1.132812 -6.617188 0.96875 -7.140625 0.96875 -7.796875 C 0.96875 -8.328125 1.109375 -8.8125 1.390625 -9.25 C 1.671875 -9.6875 2.101562 -10.035156 2.6875 -10.296875 C 3.28125 -10.566406 4.007812 -10.703125 4.875 -10.703125 C 5.488281 -10.703125 6.082031 -10.617188 6.65625 -10.453125 C 7.238281 -10.285156 7.742188 -10.054688 8.171875 -9.765625 L 7.796875 -8.859375 C 7.347656 -9.160156 6.867188 -9.382812 6.359375 -9.53125 C 5.859375 -9.675781 5.363281 -9.75 4.875 -9.75 C 3.945312 -9.75 3.25 -9.566406 2.78125 -9.203125 C 2.3125 -8.847656 2.078125 -8.390625 2.078125 -7.828125 C 2.078125 -7.398438 2.203125 -7.054688 2.453125 -6.796875 C 2.710938 -6.535156 3.035156 -6.335938 3.421875 -6.203125 C 3.816406 -6.066406 4.34375 -5.921875 5 -5.765625 C 5.78125 -5.566406 6.410156 -5.375 6.890625 -5.1875 C 7.367188 -5 7.773438 -4.71875 8.109375 -4.34375 C 8.441406 -3.96875 8.609375 -3.453125 8.609375 -2.796875 C 8.609375 -2.265625 8.460938 -1.78125 8.171875 -1.34375 C 7.890625 -0.90625 7.445312 -0.554688 6.84375 -0.296875 C 6.25 -0.0351562 5.519531 0.09375 4.65625 0.09375 Z M 4.65625 0.09375 "/></g></g></g><g mask="url(#e1a1a36c92)"><g transform="matrix(1, 0, 0, 1, 63, 212)"><g clip-path="url(#6128c6289a)"><g fill="#000000" fill-opacity="1"><g transform="translate(0.779949, 7.257768)"><g><path d="M 2.625 -1.828125 C 2.984375 -2.046875 3.1875 -2.421875 3.1875 -2.84375 C 3.1875 -3.46875 2.703125 -3.9375 1.796875 -3.9375 C 1.578125 -3.9375 1.3125 -3.90625 1.015625 -3.90625 C 0.8125 -3.90625 0.53125 -3.921875 0.28125 -3.9375 L 0.28125 -3.90625 C 0.59375 -3.84375 0.71875 -3.75 0.734375 -3.453125 C 0.765625 -3.078125 0.765625 -2.1875 0.765625 -1.96875 C 0.765625 -1.40625 0.765625 -1 0.734375 -0.515625 C 0.71875 -0.234375 0.578125 -0.09375 0.265625 -0.03125 L 0.265625 0 C 0.546875 -0.015625 0.84375 -0.03125 1.09375 -0.03125 C 1.34375 -0.03125 1.640625 -0.015625 1.921875 0 L 1.921875 -0.03125 C 1.59375 -0.09375 1.484375 -0.234375 1.46875 -0.5 C 1.4375 -0.953125 1.4375 -1.21875 1.421875 -1.640625 C 1.546875 -1.625 1.703125 -1.625 1.828125 -1.625 L 1.921875 -1.625 C 2.8125 -0.328125 2.46875 0 4.25 0 L 4.25 -0.03125 C 3.609375 -0.0625 3.25 -0.71875 2.625 -1.828125 Z M 1.734375 -1.8125 C 1.609375 -1.8125 1.515625 -1.828125 1.421875 -1.859375 L 1.421875 -1.96875 C 1.421875 -2.5 1.421875 -2.890625 1.453125 -3.6875 C 1.546875 -3.703125 1.625 -3.703125 1.703125 -3.703125 C 2.265625 -3.703125 2.515625 -3.25 2.515625 -2.75 C 2.515625 -2.375 2.375 -1.8125 1.734375 -1.8125 Z M 1.734375 -1.8125 "/></g></g></g><g fill="#000000" fill-opacity="1"><g transform="translate(5.438884, 7.257768)"><g><path d="M 2.921875 -0.90625 L 2.890625 -0.90625 C 2.78125 -0.40625 2.578125 -0.265625 2.109375 -0.265625 C 1.8125 -0.265625 1.46875 -0.296875 1.453125 -0.6875 C 1.4375 -0.9375 1.421875 -1.359375 1.421875 -1.96875 C 1.609375 -1.96875 1.8125 -1.953125 2 -1.953125 C 2.40625 -1.9375 2.453125 -1.828125 2.515625 -1.53125 L 2.546875 -1.546875 C 2.53125 -1.71875 2.515625 -1.890625 2.515625 -2.0625 C 2.515625 -2.21875 2.53125 -2.390625 2.546875 -2.578125 L 2.515625 -2.578125 C 2.46875 -2.328125 2.40625 -2.171875 2 -2.15625 C 1.734375 -2.15625 1.5625 -2.140625 1.421875 -2.15625 C 1.421875 -2.609375 1.4375 -2.9375 1.453125 -3.6875 C 1.71875 -3.71875 1.890625 -3.71875 2.03125 -3.71875 C 2.53125 -3.71875 2.78125 -3.578125 2.859375 -3.109375 L 2.90625 -3.109375 C 2.859375 -3.390625 2.875 -3.734375 2.90625 -3.9375 C 2.59375 -3.921875 2.140625 -3.90625 1.65625 -3.90625 C 1.140625 -3.90625 0.65625 -3.921875 0.265625 -3.9375 L 0.265625 -3.90625 C 0.578125 -3.84375 0.71875 -3.6875 0.734375 -3.40625 C 0.765625 -2.921875 0.765625 -2.515625 0.765625 -1.96875 C 0.765625 -1.34375 0.765625 -1.03125 0.734375 -0.515625 C 0.71875 -0.203125 0.578125 -0.09375 0.28125 -0.03125 L 0.28125 0 C 0.640625 -0.03125 1.3125 -0.03125 1.65625 -0.03125 C 2.015625 -0.03125 2.453125 -0.03125 2.921875 0 C 2.890625 -0.3125 2.890625 -0.609375 2.921875 -0.90625 Z M 2.921875 -0.90625 "/></g></g></g><g fill="#000000" fill-opacity="1"><g transform="translate(9.284002, 7.257768)"><g><path d="M 3.609375 -0.546875 C 2.890625 -2.046875 2.546875 -2.75 2 -4 L 1.984375 -4 C 1.65625 -3.140625 0.984375 -1.578125 0.53125 -0.546875 C 0.375 -0.21875 0.203125 -0.0625 0.03125 -0.03125 L 0.03125 0 C 0.1875 -0.015625 0.390625 -0.03125 0.59375 -0.03125 C 0.765625 -0.03125 1 -0.015625 1.1875 0 L 1.1875 -0.03125 C 0.84375 -0.078125 0.75 -0.21875 0.875 -0.546875 C 0.953125 -0.734375 1.015625 -0.90625 1.078125 -1.09375 C 1.28125 -1.09375 1.546875 -1.109375 1.8125 -1.109375 C 2.078125 -1.109375 2.359375 -1.09375 2.59375 -1.09375 C 2.671875 -0.890625 2.75 -0.703125 2.8125 -0.53125 C 2.9375 -0.21875 2.796875 -0.0625 2.453125 -0.03125 L 2.453125 0 C 2.71875 -0.015625 3.109375 -0.03125 3.34375 -0.03125 C 3.59375 -0.03125 3.9375 -0.015625 4.125 0 L 4.125 -0.03125 C 3.859375 -0.078125 3.75 -0.234375 3.609375 -0.546875 Z M 1.8125 -1.34375 C 1.625 -1.34375 1.390625 -1.359375 1.203125 -1.375 C 1.40625 -1.890625 1.609375 -2.390625 1.78125 -2.84375 C 1.984375 -2.4375 2.25 -1.890625 2.46875 -1.375 C 2.25 -1.359375 2 -1.34375 1.8125 -1.34375 Z M 1.8125 -1.34375 "/></g></g></g><g fill="#000000" fill-opacity="1"><g transform="translate(13.992094, 7.257768)"><g><path d="M 2.921875 -0.90625 L 2.890625 -0.90625 C 2.78125 -0.40625 2.59375 -0.265625 2.125 -0.265625 C 1.8125 -0.265625 1.46875 -0.296875 1.453125 -0.6875 C 1.4375 -0.9375 1.421875 -1.359375 1.421875 -1.96875 C 1.421875 -2.609375 1.4375 -2.875 1.46875 -3.4375 C 1.484375 -3.703125 1.59375 -3.84375 1.921875 -3.90625 L 1.921875 -3.9375 C 1.640625 -3.921875 1.34375 -3.90625 1.09375 -3.90625 C 0.84375 -3.90625 0.546875 -3.921875 0.265625 -3.9375 L 0.265625 -3.90625 C 0.578125 -3.84375 0.71875 -3.703125 0.734375 -3.421875 C 0.765625 -2.9375 0.765625 -2.53125 0.765625 -1.96875 C 0.765625 -1.34375 0.765625 -1.03125 0.734375 -0.515625 C 0.71875 -0.203125 0.578125 -0.09375 0.28125 -0.03125 L 0.28125 0 C 0.640625 -0.03125 1.328125 -0.03125 1.65625 -0.03125 C 2.03125 -0.03125 2.46875 -0.03125 2.921875 0 C 2.890625 -0.3125 2.890625 -0.609375 2.921875 -0.90625 Z M 2.921875 -0.90625 "/></g></g></g><g fill="#000000" fill-opacity="1"><g transform="translate(17.837212, 7.257768)"><g/></g></g><g fill="#000000" fill-opacity="1"><g transform="translate(19.688768, 7.257768)"><g><path d="M 2.921875 -0.90625 L 2.890625 -0.90625 C 2.78125 -0.40625 2.578125 -0.265625 2.109375 -0.265625 C 1.8125 -0.265625 1.46875 -0.296875 1.453125 -0.6875 C 1.4375 -0.9375 1.421875 -1.359375 1.421875 -1.96875 C 1.609375 -1.96875 1.8125 -1.953125 2 -1.953125 C 2.40625 -1.9375 2.453125 -1.828125 2.515625 -1.53125 L 2.546875 -1.546875 C 2.53125 -1.71875 2.515625 -1.890625 2.515625 -2.0625 C 2.515625 -2.21875 2.53125 -2.390625 2.546875 -2.578125 L 2.515625 -2.578125 C 2.46875 -2.328125 2.40625 -2.171875 2 -2.15625 C 1.734375 -2.15625 1.5625 -2.140625 1.421875 -2.15625 C 1.421875 -2.609375 1.4375 -2.9375 1.453125 -3.6875 C 1.71875 -3.71875 1.890625 -3.71875 2.03125 -3.71875 C 2.53125 -3.71875 2.78125 -3.578125 2.859375 -3.109375 L 2.90625 -3.109375 C 2.859375 -3.390625 2.875 -3.734375 2.90625 -3.9375 C 2.59375 -3.921875 2.140625 -3.90625 1.65625 -3.90625 C 1.140625 -3.90625 0.65625 -3.921875 0.265625 -3.9375 L 0.265625 -3.90625 C 0.578125 -3.84375 0.71875 -3.6875 0.734375 -3.40625 C 0.765625 -2.921875 0.765625 -2.515625 0.765625 -1.96875 C 0.765625 -1.34375 0.765625 -1.03125 0.734375 -0.515625 C 0.71875 -0.203125 0.578125 -0.09375 0.28125 -0.03125 L 0.28125 0 C 0.640625 -0.03125 1.3125 -0.03125 1.65625 -0.03125 C 2.015625 -0.03125 2.453125 -0.03125 2.921875 0 C 2.890625 -0.3125 2.890625 -0.609375 2.921875 -0.90625 Z M 2.921875 -0.90625 "/></g></g></g><g fill="#000000" fill-opacity="1"><g transform="translate(23.533885, 7.257768)"><g><path d="M 1.390625 0.0625 C 2.109375 0.0625 2.6875 -0.375 2.6875 -1.046875 C 2.6875 -2.140625 1.125 -2.46875 1.125 -3.25 C 1.125 -3.515625 1.328125 -3.765625 1.734375 -3.765625 C 2.0625 -3.765625 2.328125 -3.578125 2.421875 -3.125 L 2.453125 -3.125 C 2.421875 -3.296875 2.4375 -3.59375 2.453125 -3.796875 C 2.28125 -3.90625 2.046875 -4 1.703125 -4 C 1.078125 -4 0.46875 -3.6875 0.46875 -3.015625 C 0.46875 -1.96875 2.03125 -1.65625 2.03125 -0.78125 C 2.03125 -0.390625 1.71875 -0.171875 1.34375 -0.171875 C 0.921875 -0.171875 0.546875 -0.46875 0.4375 -1 L 0.40625 -1 C 0.4375 -0.75 0.4375 -0.515625 0.40625 -0.265625 C 0.59375 -0.125 0.90625 0.0625 1.390625 0.0625 Z M 1.390625 0.0625 "/></g></g></g><g fill="#000000" fill-opacity="1"><g transform="translate(27.160533, 7.257768)"><g><path d="M 3.75 -4.109375 C 3.71875 -4 3.671875 -3.96875 3.578125 -3.953125 C 3.375 -3.9375 2.359375 -3.90625 1.96875 -3.90625 C 1.5625 -3.90625 0.65625 -3.9375 0.484375 -3.953125 C 0.421875 -3.96875 0.390625 -3.96875 0.390625 -4.109375 L 0.359375 -4.109375 C 0.328125 -3.859375 0.21875 -3.328125 0.15625 -3.15625 L 0.1875 -3.140625 C 0.28125 -3.375 0.34375 -3.578125 0.609375 -3.625 C 0.8125 -3.65625 1.234375 -3.671875 1.609375 -3.6875 C 1.640625 -3.125 1.640625 -2.5 1.640625 -1.953125 C 1.640625 -1.390625 1.640625 -0.984375 1.609375 -0.5 C 1.59375 -0.21875 1.46875 -0.09375 1.15625 -0.015625 L 1.15625 0.015625 C 1.421875 0 1.734375 -0.015625 1.984375 -0.015625 C 2.21875 -0.015625 2.53125 0 2.8125 0.015625 L 2.8125 -0.015625 C 2.484375 -0.09375 2.375 -0.21875 2.359375 -0.5 C 2.3125 -1.046875 2.3125 -1.328125 2.3125 -1.953125 C 2.3125 -2.578125 2.3125 -3.15625 2.34375 -3.6875 C 2.703125 -3.671875 3.125 -3.65625 3.3125 -3.625 C 3.5625 -3.59375 3.609375 -3.40625 3.578125 -3.1875 L 3.609375 -3.1875 C 3.640625 -3.390625 3.703125 -3.796875 3.78125 -4.109375 Z M 3.75 -4.109375 "/></g></g></g><g fill="#000000" fill-opacity="1"><g transform="translate(31.671999, 7.257768)"><g><path d="M 3.609375 -0.546875 C 2.890625 -2.046875 2.546875 -2.75 2 -4 L 1.984375 -4 C 1.65625 -3.140625 0.984375 -1.578125 0.53125 -0.546875 C 0.375 -0.21875 0.203125 -0.0625 0.03125 -0.03125 L 0.03125 0 C 0.1875 -0.015625 0.390625 -0.03125 0.59375 -0.03125 C 0.765625 -0.03125 1 -0.015625 1.1875 0 L 1.1875 -0.03125 C 0.84375 -0.078125 0.75 -0.21875 0.875 -0.546875 C 0.953125 -0.734375 1.015625 -0.90625 1.078125 -1.09375 C 1.28125 -1.09375 1.546875 -1.109375 1.8125 -1.109375 C 2.078125 -1.109375 2.359375 -1.09375 2.59375 -1.09375 C 2.671875 -0.890625 2.75 -0.703125 2.8125 -0.53125 C 2.9375 -0.21875 2.796875 -0.0625 2.453125 -0.03125 L 2.453125 0 C 2.71875 -0.015625 3.109375 -0.03125 3.34375 -0.03125 C 3.59375 -0.03125 3.9375 -0.015625 4.125 0 L 4.125 -0.03125 C 3.859375 -0.078125 3.75 -0.234375 3.609375 -0.546875 Z M 1.8125 -1.34375 C 1.625 -1.34375 1.390625 -1.359375 1.203125 -1.375 C 1.40625 -1.890625 1.609375 -2.390625 1.78125 -2.84375 C 1.984375 -2.4375 2.25 -1.890625 2.46875 -1.375 C 2.25 -1.359375 2 -1.34375 1.8125 -1.34375 Z M 1.8125 -1.34375 "/></g></g></g><g fill="#000000" fill-opacity="1"><g transform="translate(36.380091, 7.257768)"><g><path d="M 3.75 -4.109375 C 3.71875 -4 3.671875 -3.96875 3.578125 -3.953125 C 3.375 -3.9375 2.359375 -3.90625 1.96875 -3.90625 C 1.5625 -3.90625 0.65625 -3.9375 0.484375 -3.953125 C 0.421875 -3.96875 0.390625 -3.96875 0.390625 -4.109375 L 0.359375 -4.109375 C 0.328125 -3.859375 0.21875 -3.328125 0.15625 -3.15625 L 0.1875 -3.140625 C 0.28125 -3.375 0.34375 -3.578125 0.609375 -3.625 C 0.8125 -3.65625 1.234375 -3.671875 1.609375 -3.6875 C 1.640625 -3.125 1.640625 -2.5 1.640625 -1.953125 C 1.640625 -1.390625 1.640625 -0.984375 1.609375 -0.5 C 1.59375 -0.21875 1.46875 -0.09375 1.15625 -0.015625 L 1.15625 0.015625 C 1.421875 0 1.734375 -0.015625 1.984375 -0.015625 C 2.21875 -0.015625 2.53125 0 2.8125 0.015625 L 2.8125 -0.015625 C 2.484375 -0.09375 2.375 -0.21875 2.359375 -0.5 C 2.3125 -1.046875 2.3125 -1.328125 2.3125 -1.953125 C 2.3125 -2.578125 2.3125 -3.15625 2.34375 -3.6875 C 2.703125 -3.671875 3.125 -3.65625 3.3125 -3.625 C 3.5625 -3.59375 3.609375 -3.40625 3.578125 -3.1875 L 3.609375 -3.1875 C 3.640625 -3.390625 3.703125 -3.796875 3.78125 -4.109375 Z M 3.75 -4.109375 "/></g></g></g><g fill="#000000" fill-opacity="1"><g transform="translate(40.891555, 7.257768)"><g><path d="M 2.921875 -0.90625 L 2.890625 -0.90625 C 2.78125 -0.40625 2.578125 -0.265625 2.109375 -0.265625 C 1.8125 -0.265625 1.46875 -0.296875 1.453125 -0.6875 C 1.4375 -0.9375 1.421875 -1.359375 1.421875 -1.96875 C 1.609375 -1.96875 1.8125 -1.953125 2 -1.953125 C 2.40625 -1.9375 2.453125 -1.828125 2.515625 -1.53125 L 2.546875 -1.546875 C 2.53125 -1.71875 2.515625 -1.890625 2.515625 -2.0625 C 2.515625 -2.21875 2.53125 -2.390625 2.546875 -2.578125 L 2.515625 -2.578125 C 2.46875 -2.328125 2.40625 -2.171875 2 -2.15625 C 1.734375 -2.15625 1.5625 -2.140625 1.421875 -2.15625 C 1.421875 -2.609375 1.4375 -2.9375 1.453125 -3.6875 C 1.71875 -3.71875 1.890625 -3.71875 2.03125 -3.71875 C 2.53125 -3.71875 2.78125 -3.578125 2.859375 -3.109375 L 2.90625 -3.109375 C 2.859375 -3.390625 2.875 -3.734375 2.90625 -3.9375 C 2.59375 -3.921875 2.140625 -3.90625 1.65625 -3.90625 C 1.140625 -3.90625 0.65625 -3.921875 0.265625 -3.9375 L 0.265625 -3.90625 C 0.578125 -3.84375 0.71875 -3.6875 0.734375 -3.40625 C 0.765625 -2.921875 0.765625 -2.515625 0.765625 -1.96875 C 0.765625 -1.34375 0.765625 -1.03125 0.734375 -0.515625 C 0.71875 -0.203125 0.578125 -0.09375 0.28125 -0.03125 L 0.28125 0 C 0.640625 -0.03125 1.3125 -0.03125 1.65625 -0.03125 C 2.015625 -0.03125 2.453125 -0.03125 2.921875 0 C 2.890625 -0.3125 2.890625 -0.609375 2.921875 -0.90625 Z M 2.921875 -0.90625 "/></g></g></g><g fill="#000000" fill-opacity="1"><g transform="translate(44.736672, 7.257768)"><g/></g></g><g fill="#000000" fill-opacity="1"><g transform="translate(46.588228, 7.257768)"><g><path d="M 0.53125 0.65625 C 0.59375 0.640625 0.65625 0.640625 0.71875 0.640625 C 0.765625 0.640625 0.859375 0.640625 0.90625 0.65625 C 0.890625 -0.21875 0.890625 -1.078125 0.890625 -1.9375 C 0.890625 -2.8125 0.890625 -3.671875 0.90625 -4.546875 C 0.859375 -4.515625 0.765625 -4.515625 0.71875 -4.515625 C 0.65625 -4.515625 0.59375 -4.515625 0.53125 -4.546875 C 0.546875 -3.671875 0.5625 -2.8125 0.5625 -1.9375 C 0.5625 -1.078125 0.546875 -0.21875 0.53125 0.65625 Z M 0.53125 0.65625 "/></g></g></g><g fill="#000000" fill-opacity="1"><g transform="translate(48.587255, 7.257768)"><g/></g></g><g fill="#000000" fill-opacity="1"><g transform="translate(50.438811, 7.257768)"><g><path d="M 3.75 -4.109375 C 3.71875 -4 3.671875 -3.96875 3.578125 -3.953125 C 3.375 -3.9375 2.359375 -3.90625 1.96875 -3.90625 C 1.5625 -3.90625 0.65625 -3.9375 0.484375 -3.953125 C 0.421875 -3.96875 0.390625 -3.96875 0.390625 -4.109375 L 0.359375 -4.109375 C 0.328125 -3.859375 0.21875 -3.328125 0.15625 -3.15625 L 0.1875 -3.140625 C 0.28125 -3.375 0.34375 -3.578125 0.609375 -3.625 C 0.8125 -3.65625 1.234375 -3.671875 1.609375 -3.6875 C 1.640625 -3.125 1.640625 -2.5 1.640625 -1.953125 C 1.640625 -1.390625 1.640625 -0.984375 1.609375 -0.5 C 1.59375 -0.21875 1.46875 -0.09375 1.15625 -0.015625 L 1.15625 0.015625 C 1.421875 0 1.734375 -0.015625 1.984375 -0.015625 C 2.21875 -0.015625 2.53125 0 2.8125 0.015625 L 2.8125 -0.015625 C 2.484375 -0.09375 2.375 -0.21875 2.359375 -0.5 C 2.3125 -1.046875 2.3125 -1.328125 2.3125 -1.953125 C 2.3125 -2.578125 2.3125 -3.15625 2.34375 -3.6875 C 2.703125 -3.671875 3.125 -3.65625 3.3125 -3.625 C 3.5625 -3.59375 3.609375 -3.40625 3.578125 -3.1875 L 3.609375 -3.1875 C 3.640625 -3.390625 3.703125 -3.796875 3.78125 -4.109375 Z M 3.75 -4.109375 "/></g></g></g><g fill="#000000" fill-opacity="1"><g transform="translate(54.950275, 7.257768)"><g><path d="M 3.609375 -0.546875 C 2.890625 -2.046875 2.546875 -2.75 2 -4 L 1.984375 -4 C 1.65625 -3.140625 0.984375 -1.578125 0.53125 -0.546875 C 0.375 -0.21875 0.203125 -0.0625 0.03125 -0.03125 L 0.03125 0 C 0.1875 -0.015625 0.390625 -0.03125 0.59375 -0.03125 C 0.765625 -0.03125 1 -0.015625 1.1875 0 L 1.1875 -0.03125 C 0.84375 -0.078125 0.75 -0.21875 0.875 -0.546875 C 0.953125 -0.734375 1.015625 -0.90625 1.078125 -1.09375 C 1.28125 -1.09375 1.546875 -1.109375 1.8125 -1.109375 C 2.078125 -1.109375 2.359375 -1.09375 2.59375 -1.09375 C 2.671875 -0.890625 2.75 -0.703125 2.8125 -0.53125 C 2.9375 -0.21875 2.796875 -0.0625 2.453125 -0.03125 L 2.453125 0 C 2.71875 -0.015625 3.109375 -0.03125 3.34375 -0.03125 C 3.59375 -0.03125 3.9375 -0.015625 4.125 0 L 4.125 -0.03125 C 3.859375 -0.078125 3.75 -0.234375 3.609375 -0.546875 Z M 1.8125 -1.34375 C 1.625 -1.34375 1.390625 -1.359375 1.203125 -1.375 C 1.40625 -1.890625 1.609375 -2.390625 1.78125 -2.84375 C 1.984375 -2.4375 2.25 -1.890625 2.46875 -1.375 C 2.25 -1.359375 2 -1.34375 1.8125 -1.34375 Z M 1.8125 -1.34375 "/></g></g></g><g fill="#000000" fill-opacity="1"><g transform="translate(59.658371, 7.257768)"><g><path d="M 3.640625 -0.5625 C 3.28125 -1.0625 2.859375 -1.609375 2.5 -2.140625 C 2.875 -2.640625 3.15625 -2.984375 3.484375 -3.40625 C 3.703125 -3.703125 3.875 -3.859375 4.171875 -3.90625 L 4.171875 -3.9375 C 3.953125 -3.921875 3.78125 -3.90625 3.578125 -3.90625 C 3.390625 -3.90625 3.1875 -3.921875 2.921875 -3.9375 L 2.921875 -3.90625 C 3.265625 -3.875 3.328125 -3.71875 3.125 -3.421875 C 2.84375 -3 2.6875 -2.765625 2.359375 -2.328125 C 2.0625 -2.734375 1.796875 -3.125 1.59375 -3.40625 C 1.375 -3.734375 1.5 -3.859375 1.828125 -3.90625 L 1.828125 -3.9375 C 1.484375 -3.921875 1.171875 -3.90625 0.96875 -3.90625 C 0.765625 -3.90625 0.359375 -3.921875 0.109375 -3.9375 L 0.109375 -3.90625 C 0.359375 -3.828125 0.453125 -3.734375 0.703125 -3.40625 C 1.015625 -2.984375 1.390625 -2.46875 1.75 -1.984375 C 1.4375 -1.53125 1 -0.921875 0.734375 -0.578125 C 0.484375 -0.234375 0.34375 -0.09375 0.0625 -0.03125 L 0.0625 0 C 0.25 -0.015625 0.484375 -0.03125 0.671875 -0.03125 C 0.84375 -0.03125 1.015625 -0.015625 1.296875 0 L 1.296875 -0.03125 C 0.953125 -0.09375 0.875 -0.25 1.078125 -0.578125 C 1.3125 -0.921875 1.578125 -1.3125 1.890625 -1.765625 C 2.265625 -1.25 2.59375 -0.796875 2.75 -0.578125 C 3 -0.21875 2.875 -0.09375 2.5625 -0.03125 L 2.5625 0 C 2.8125 -0.015625 3.25 -0.03125 3.46875 -0.03125 C 3.6875 -0.03125 4.078125 -0.015625 4.28125 0 L 4.28125 -0.03125 C 4.015625 -0.125 3.890625 -0.25 3.640625 -0.5625 Z M 3.640625 -0.5625 "/></g></g></g><g fill="#000000" fill-opacity="1"><g transform="translate(64.584932, 7.257768)"><g/></g></g><g fill="#000000" fill-opacity="1"><g transform="translate(66.436488, 7.257768)"><g><path d="M 3.609375 -0.546875 C 2.890625 -2.046875 2.546875 -2.75 2 -4 L 1.984375 -4 C 1.65625 -3.140625 0.984375 -1.578125 0.53125 -0.546875 C 0.375 -0.21875 0.203125 -0.0625 0.03125 -0.03125 L 0.03125 0 C 0.1875 -0.015625 0.390625 -0.03125 0.59375 -0.03125 C 0.765625 -0.03125 1 -0.015625 1.1875 0 L 1.1875 -0.03125 C 0.84375 -0.078125 0.75 -0.21875 0.875 -0.546875 C 0.953125 -0.734375 1.015625 -0.90625 1.078125 -1.09375 C 1.28125 -1.09375 1.546875 -1.109375 1.8125 -1.109375 C 2.078125 -1.109375 2.359375 -1.09375 2.59375 -1.09375 C 2.671875 -0.890625 2.75 -0.703125 2.8125 -0.53125 C 2.9375 -0.21875 2.796875 -0.0625 2.453125 -0.03125 L 2.453125 0 C 2.71875 -0.015625 3.109375 -0.03125 3.34375 -0.03125 C 3.59375 -0.03125 3.9375 -0.015625 4.125 0 L 4.125 -0.03125 C 3.859375 -0.078125 3.75 -0.234375 3.609375 -0.546875 Z M 1.8125 -1.34375 C 1.625 -1.34375 1.390625 -1.359375 1.203125 -1.375 C 1.40625 -1.890625 1.609375 -2.390625 1.78125 -2.84375 C 1.984375 -2.4375 2.25 -1.890625 2.46875 -1.375 C 2.25 -1.359375 2 -1.34375 1.8125 -1.34375 Z M 1.8125 -1.34375 "/></g></g></g><g fill="#000000" fill-opacity="1"><g transform="translate(71.14458, 7.257768)"><g><path d="M 1.921875 -3.9375 C 1.59375 -3.9375 1.296875 -3.90625 1 -3.90625 C 0.796875 -3.90625 0.46875 -3.921875 0.265625 -3.9375 L 0.265625 -3.90625 C 0.578125 -3.84375 0.71875 -3.75 0.734375 -3.4375 C 0.75 -3.125 0.75 -2.65625 0.75 -1.96875 C 0.75 -1.234375 0.75 -0.796875 0.734375 -0.5 C 0.703125 -0.203125 0.609375 -0.109375 0.28125 -0.03125 L 0.28125 0 C 0.4375 -0.015625 0.890625 -0.03125 1.140625 -0.03125 C 1.46875 -0.03125 1.84375 0 2.09375 0 C 3.40625 0 4.203125 -0.953125 4.203125 -2.046875 C 4.203125 -3.1875 3.328125 -3.9375 1.921875 -3.9375 Z M 2.15625 -0.21875 C 1.796875 -0.21875 1.484375 -0.3125 1.4375 -0.71875 C 1.421875 -0.953125 1.421875 -1.25 1.421875 -1.921875 C 1.421875 -2.5 1.421875 -2.9375 1.453125 -3.703125 C 1.59375 -3.71875 1.734375 -3.734375 1.859375 -3.734375 C 3.046875 -3.734375 3.46875 -2.796875 3.46875 -1.90625 C 3.46875 -1.015625 3.046875 -0.21875 2.15625 -0.21875 Z M 2.15625 -0.21875 "/></g></g></g><g fill="#000000" fill-opacity="1"><g transform="translate(76.185838, 7.257768)"><g><path d="M 3.71875 -3.90625 C 3.515625 -3.90625 3.328125 -3.921875 3.125 -3.9375 L 3.125 -3.90625 C 3.484375 -3.828125 3.5 -3.703125 3.375 -3.390625 C 3.046875 -2.59375 2.703125 -1.78125 2.40625 -1.09375 C 2.0625 -1.765625 1.59375 -2.734375 1.34375 -3.375 C 1.234375 -3.703125 1.296875 -3.8125 1.71875 -3.90625 L 1.71875 -3.9375 C 1.46875 -3.921875 1.015625 -3.90625 0.8125 -3.90625 C 0.609375 -3.90625 0.25 -3.921875 0.03125 -3.9375 L 0.03125 -3.90625 C 0.25 -3.828125 0.375 -3.703125 0.53125 -3.390625 C 1.046875 -2.359375 1.359375 -1.703125 2.15625 0.0625 C 2.65625 -1.015625 3.21875 -2.25 3.765625 -3.390625 C 3.921875 -3.703125 4.015625 -3.796875 4.265625 -3.90625 L 4.265625 -3.9375 C 4.140625 -3.921875 3.90625 -3.90625 3.71875 -3.90625 Z M 3.71875 -3.90625 "/></g></g></g><g fill="#000000" fill-opacity="1"><g transform="translate(81.030468, 7.257768)"><g><path d="M 1.921875 -3.90625 L 1.921875 -3.9375 C 1.640625 -3.921875 1.34375 -3.90625 1.09375 -3.90625 C 0.84375 -3.90625 0.546875 -3.921875 0.265625 -3.9375 L 0.265625 -3.90625 C 0.578125 -3.84375 0.71875 -3.703125 0.734375 -3.421875 C 0.765625 -2.9375 0.765625 -2.53125 0.765625 -1.96875 C 0.765625 -1.40625 0.765625 -1 0.734375 -0.515625 C 0.71875 -0.234375 0.578125 -0.09375 0.265625 -0.03125 L 0.265625 0 C 0.546875 -0.015625 0.84375 -0.03125 1.09375 -0.03125 C 1.34375 -0.03125 1.640625 -0.015625 1.921875 0 L 1.921875 -0.03125 C 1.609375 -0.09375 1.484375 -0.234375 1.46875 -0.515625 C 1.4375 -1.0625 1.421875 -1.328125 1.421875 -1.96875 C 1.421875 -2.609375 1.4375 -2.875 1.46875 -3.421875 C 1.484375 -3.703125 1.59375 -3.828125 1.921875 -3.90625 Z M 1.921875 -3.90625 "/></g></g></g><g fill="#000000" fill-opacity="1"><g transform="translate(83.7723, 7.257768)"><g><path d="M 1.390625 0.0625 C 2.109375 0.0625 2.6875 -0.375 2.6875 -1.046875 C 2.6875 -2.140625 1.125 -2.46875 1.125 -3.25 C 1.125 -3.515625 1.328125 -3.765625 1.734375 -3.765625 C 2.0625 -3.765625 2.328125 -3.578125 2.421875 -3.125 L 2.453125 -3.125 C 2.421875 -3.296875 2.4375 -3.59375 2.453125 -3.796875 C 2.28125 -3.90625 2.046875 -4 1.703125 -4 C 1.078125 -4 0.46875 -3.6875 0.46875 -3.015625 C 0.46875 -1.96875 2.03125 -1.65625 2.03125 -0.78125 C 2.03125 -0.390625 1.71875 -0.171875 1.34375 -0.171875 C 0.921875 -0.171875 0.546875 -0.46875 0.4375 -1 L 0.40625 -1 C 0.4375 -0.75 0.4375 -0.515625 0.40625 -0.265625 C 0.59375 -0.125 0.90625 0.0625 1.390625 0.0625 Z M 1.390625 0.0625 "/></g></g></g><g fill="#000000" fill-opacity="1"><g transform="translate(87.398948, 7.257768)"><g><path d="M 2.40625 0.0625 C 3.640625 0.0625 4.5 -0.828125 4.5 -1.984375 C 4.5 -3.15625 3.578125 -4 2.375 -4 C 1.15625 -4 0.28125 -3.109375 0.28125 -1.953125 C 0.28125 -0.796875 1.21875 0.0625 2.40625 0.0625 Z M 2.453125 -0.171875 C 1.515625 -0.171875 1 -1.125 1 -2.109375 C 1 -3.046875 1.53125 -3.78125 2.328125 -3.78125 C 3.28125 -3.78125 3.78125 -2.8125 3.78125 -1.84375 C 3.78125 -0.875 3.265625 -0.171875 2.453125 -0.171875 Z M 2.453125 -0.171875 "/></g></g></g><g fill="#000000" fill-opacity="1"><g transform="translate(92.735147, 7.257768)"><g><path d="M 2.625 -1.828125 C 2.984375 -2.046875 3.1875 -2.421875 3.1875 -2.84375 C 3.1875 -3.46875 2.703125 -3.9375 1.796875 -3.9375 C 1.578125 -3.9375 1.3125 -3.90625 1.015625 -3.90625 C 0.8125 -3.90625 0.53125 -3.921875 0.28125 -3.9375 L 0.28125 -3.90625 C 0.59375 -3.84375 0.71875 -3.75 0.734375 -3.453125 C 0.765625 -3.078125 0.765625 -2.1875 0.765625 -1.96875 C 0.765625 -1.40625 0.765625 -1 0.734375 -0.515625 C 0.71875 -0.234375 0.578125 -0.09375 0.265625 -0.03125 L 0.265625 0 C 0.546875 -0.015625 0.84375 -0.03125 1.09375 -0.03125 C 1.34375 -0.03125 1.640625 -0.015625 1.921875 0 L 1.921875 -0.03125 C 1.59375 -0.09375 1.484375 -0.234375 1.46875 -0.5 C 1.4375 -0.953125 1.4375 -1.21875 1.421875 -1.640625 C 1.546875 -1.625 1.703125 -1.625 1.828125 -1.625 L 1.921875 -1.625 C 2.8125 -0.328125 2.46875 0 4.25 0 L 4.25 -0.03125 C 3.609375 -0.0625 3.25 -0.71875 2.625 -1.828125 Z M 1.734375 -1.8125 C 1.609375 -1.8125 1.515625 -1.828125 1.421875 -1.859375 L 1.421875 -1.96875 C 1.421875 -2.5 1.421875 -2.890625 1.453125 -3.6875 C 1.546875 -3.703125 1.625 -3.703125 1.703125 -3.703125 C 2.265625 -3.703125 2.515625 -3.25 2.515625 -2.75 C 2.515625 -2.375 2.375 -1.8125 1.734375 -1.8125 Z M 1.734375 -1.8125 "/></g></g></g><g fill="#000000" fill-opacity="1"><g transform="translate(97.394081, 7.257768)"><g><path d="M 3.34375 -3.90625 C 3.125 -3.90625 2.890625 -3.921875 2.6875 -3.9375 L 2.6875 -3.90625 C 3.03125 -3.84375 3.171875 -3.75 2.96875 -3.390625 C 2.765625 -3.0625 2.5 -2.609375 2.171875 -2.09375 C 1.8125 -2.671875 1.5625 -3.078125 1.375 -3.390625 C 1.203125 -3.703125 1.296875 -3.828125 1.71875 -3.90625 L 1.71875 -3.9375 C 1.40625 -3.921875 1.125 -3.90625 0.90625 -3.90625 C 0.65625 -3.90625 0.359375 -3.921875 0.09375 -3.9375 L 0.09375 -3.90625 C 0.3125 -3.859375 0.4375 -3.703125 0.625 -3.390625 C 0.90625 -2.96875 1.28125 -2.34375 1.65625 -1.703125 C 1.65625 -1.296875 1.65625 -0.90625 1.625 -0.5 C 1.609375 -0.21875 1.5 -0.078125 1.171875 -0.015625 L 1.171875 0.015625 C 1.4375 0 1.71875 -0.015625 2 -0.015625 C 2.296875 -0.015625 2.5625 0 2.828125 0.015625 L 2.828125 -0.015625 C 2.5 -0.078125 2.390625 -0.21875 2.375 -0.5 C 2.328125 -0.953125 2.328125 -1.390625 2.328125 -1.859375 C 2.71875 -2.5 3.0625 -3.015625 3.3125 -3.390625 C 3.515625 -3.6875 3.609375 -3.796875 3.921875 -3.90625 L 3.921875 -3.9375 C 3.75 -3.921875 3.578125 -3.90625 3.34375 -3.90625 Z M 3.34375 -3.90625 "/></g></g></g><g fill="#000000" fill-opacity="1"><g transform="translate(101.949237, 7.257768)"><g/></g></g><g fill="#000000" fill-opacity="1"><g transform="translate(103.800793, 7.257768)"><g><path d="M 0.53125 0.65625 C 0.59375 0.640625 0.65625 0.640625 0.71875 0.640625 C 0.765625 0.640625 0.859375 0.640625 0.90625 0.65625 C 0.890625 -0.21875 0.890625 -1.078125 0.890625 -1.9375 C 0.890625 -2.8125 0.890625 -3.671875 0.90625 -4.546875 C 0.859375 -4.515625 0.765625 -4.515625 0.71875 -4.515625 C 0.65625 -4.515625 0.59375 -4.515625 0.53125 -4.546875 C 0.546875 -3.671875 0.5625 -2.8125 0.5625 -1.9375 C 0.5625 -1.078125 0.546875 -0.21875 0.53125 0.65625 Z M 0.53125 0.65625 "/></g></g></g><g fill="#000000" fill-opacity="1"><g transform="translate(105.79982, 7.257768)"><g/></g></g><g fill="#000000" fill-opacity="1"><g transform="translate(107.651376, 7.257768)"><g><path d="M 2.265625 -2.09375 C 2.75 -2.21875 3.046875 -2.578125 3.046875 -3.03125 C 3.046875 -3.671875 2.46875 -3.9375 1.78125 -3.9375 C 1.5 -3.9375 1.265625 -3.90625 1.015625 -3.90625 C 0.859375 -3.90625 0.46875 -3.921875 0.265625 -3.9375 L 0.265625 -3.90625 C 0.53125 -3.84375 0.71875 -3.75 0.734375 -3.421875 C 0.75 -2.921875 0.765625 -2.484375 0.765625 -1.96875 C 0.765625 -1.328125 0.75 -0.9375 0.734375 -0.5 C 0.71875 -0.1875 0.53125 -0.09375 0.265625 -0.03125 L 0.265625 0 C 0.40625 -0.015625 0.859375 -0.03125 1.078125 -0.03125 C 1.3125 -0.03125 1.640625 0 1.890625 0 C 2.703125 0 3.265625 -0.453125 3.265625 -1.109375 C 3.265625 -1.625 2.9375 -2.03125 2.265625 -2.09375 Z M 2.390625 -2.953125 C 2.390625 -2.546875 2.15625 -2.15625 1.671875 -2.15625 C 1.59375 -2.15625 1.515625 -2.15625 1.421875 -2.171875 C 1.421875 -2.625 1.421875 -3.015625 1.4375 -3.71875 C 1.53125 -3.75 1.59375 -3.75 1.65625 -3.75 C 2.140625 -3.75 2.390625 -3.375 2.390625 -2.953125 Z M 1.921875 -0.1875 C 1.671875 -0.1875 1.453125 -0.296875 1.421875 -0.65625 C 1.421875 -0.90625 1.421875 -1.109375 1.421875 -1.9375 C 1.515625 -1.953125 1.609375 -1.96875 1.671875 -1.96875 C 2.25 -1.96875 2.625 -1.625 2.625 -1.015625 C 2.625 -0.546875 2.390625 -0.1875 1.921875 -0.1875 Z M 1.921875 -0.1875 "/></g></g></g><g fill="#000000" fill-opacity="1"><g transform="translate(111.884282, 7.257768)"><g><path d="M 3.625 -3.90625 C 3.421875 -3.90625 3.234375 -3.921875 2.96875 -3.9375 L 2.96875 -3.90625 C 3.234375 -3.875 3.390625 -3.75 3.40625 -3.4375 C 3.4375 -2.984375 3.453125 -1.96875 3.453125 -1.515625 C 3.453125 -0.625 3.0625 -0.203125 2.40625 -0.203125 C 1.734375 -0.203125 1.375 -0.640625 1.375 -1.5625 C 1.375 -2.234375 1.375 -2.890625 1.40625 -3.453125 C 1.421875 -3.734375 1.546875 -3.84375 1.859375 -3.90625 L 1.859375 -3.9375 C 1.59375 -3.921875 1.296875 -3.90625 1.046875 -3.90625 C 0.78125 -3.90625 0.484375 -3.921875 0.21875 -3.9375 L 0.21875 -3.90625 C 0.53125 -3.84375 0.65625 -3.71875 0.671875 -3.4375 C 0.703125 -2.9375 0.703125 -2.265625 0.703125 -1.578125 C 0.703125 -0.515625 1.359375 0.0625 2.296875 0.0625 C 3.234375 0.0625 3.8125 -0.484375 3.8125 -1.515625 C 3.8125 -2.15625 3.828125 -2.9375 3.84375 -3.4375 C 3.859375 -3.765625 4.015625 -3.875 4.296875 -3.90625 L 4.296875 -3.9375 C 4.03125 -3.921875 3.8125 -3.90625 3.625 -3.90625 Z M 3.625 -3.90625 "/></g></g></g><g fill="#000000" fill-opacity="1"><g transform="translate(116.936465, 7.257768)"><g><path d="M 1.390625 0.0625 C 2.109375 0.0625 2.6875 -0.375 2.6875 -1.046875 C 2.6875 -2.140625 1.125 -2.46875 1.125 -3.25 C 1.125 -3.515625 1.328125 -3.765625 1.734375 -3.765625 C 2.0625 -3.765625 2.328125 -3.578125 2.421875 -3.125 L 2.453125 -3.125 C 2.421875 -3.296875 2.4375 -3.59375 2.453125 -3.796875 C 2.28125 -3.90625 2.046875 -4 1.703125 -4 C 1.078125 -4 0.46875 -3.6875 0.46875 -3.015625 C 0.46875 -1.96875 2.03125 -1.65625 2.03125 -0.78125 C 2.03125 -0.390625 1.71875 -0.171875 1.34375 -0.171875 C 0.921875 -0.171875 0.546875 -0.46875 0.4375 -1 L 0.40625 -1 C 0.4375 -0.75 0.4375 -0.515625 0.40625 -0.265625 C 0.59375 -0.125 0.90625 0.0625 1.390625 0.0625 Z M 1.390625 0.0625 "/></g></g></g><g fill="#000000" fill-opacity="1"><g transform="translate(120.563113, 7.257768)"><g><path d="M 1.921875 -3.90625 L 1.921875 -3.9375 C 1.640625 -3.921875 1.34375 -3.90625 1.09375 -3.90625 C 0.84375 -3.90625 0.546875 -3.921875 0.265625 -3.9375 L 0.265625 -3.90625 C 0.578125 -3.84375 0.71875 -3.703125 0.734375 -3.421875 C 0.765625 -2.9375 0.765625 -2.53125 0.765625 -1.96875 C 0.765625 -1.40625 0.765625 -1 0.734375 -0.515625 C 0.71875 -0.234375 0.578125 -0.09375 0.265625 -0.03125 L 0.265625 0 C 0.546875 -0.015625 0.84375 -0.03125 1.09375 -0.03125 C 1.34375 -0.03125 1.640625 -0.015625 1.921875 0 L 1.921875 -0.03125 C 1.609375 -0.09375 1.484375 -0.234375 1.46875 -0.515625 C 1.4375 -1.0625 1.421875 -1.328125 1.421875 -1.96875 C 1.421875 -2.609375 1.4375 -2.875 1.46875 -3.421875 C 1.484375 -3.703125 1.59375 -3.828125 1.921875 -3.90625 Z M 1.921875 -3.90625 "/></g></g></g><g fill="#000000" fill-opacity="1"><g transform="translate(123.304951, 7.257768)"><g><path d="M 3.796875 -3.90625 C 3.609375 -3.90625 3.421875 -3.921875 3.15625 -3.9375 L 3.15625 -3.90625 C 3.421875 -3.84375 3.578125 -3.734375 3.59375 -3.421875 C 3.609375 -3 3.625 -2.65625 3.625 -2.109375 L 3.625 -1.28125 C 2.65625 -2.15625 1.703125 -3.046875 0.734375 -4 C 0.734375 -3.375 0.734375 -2.640625 0.734375 -2 C 0.734375 -1.40625 0.734375 -0.984375 0.703125 -0.515625 C 0.6875 -0.203125 0.546875 -0.09375 0.265625 -0.03125 L 0.265625 0 C 0.546875 -0.015625 0.703125 -0.03125 0.890625 -0.03125 C 1.0625 -0.03125 1.265625 -0.015625 1.546875 0 L 1.546875 -0.03125 C 1.265625 -0.09375 1.125 -0.203125 1.109375 -0.53125 C 1.078125 -1 1.078125 -1.40625 1.078125 -2.015625 L 1.078125 -2.65625 C 2.0625 -1.78125 3.015625 -0.875 3.953125 0.0625 L 3.96875 0.0625 C 3.953125 -0.640625 3.953125 -1.390625 3.953125 -2.0625 C 3.953125 -2.625 3.96875 -3 3.984375 -3.421875 C 4 -3.734375 4.15625 -3.84375 4.421875 -3.90625 L 4.421875 -3.9375 C 4.15625 -3.921875 3.96875 -3.90625 3.796875 -3.90625 Z M 3.796875 -3.90625 "/></g></g></g><g fill="#000000" fill-opacity="1"><g transform="translate(128.548302, 7.257768)"><g><path d="M 2.921875 -0.90625 L 2.890625 -0.90625 C 2.78125 -0.40625 2.578125 -0.265625 2.109375 -0.265625 C 1.8125 -0.265625 1.46875 -0.296875 1.453125 -0.6875 C 1.4375 -0.9375 1.421875 -1.359375 1.421875 -1.96875 C 1.609375 -1.96875 1.8125 -1.953125 2 -1.953125 C 2.40625 -1.9375 2.453125 -1.828125 2.515625 -1.53125 L 2.546875 -1.546875 C 2.53125 -1.71875 2.515625 -1.890625 2.515625 -2.0625 C 2.515625 -2.21875 2.53125 -2.390625 2.546875 -2.578125 L 2.515625 -2.578125 C 2.46875 -2.328125 2.40625 -2.171875 2 -2.15625 C 1.734375 -2.15625 1.5625 -2.140625 1.421875 -2.15625 C 1.421875 -2.609375 1.4375 -2.9375 1.453125 -3.6875 C 1.71875 -3.71875 1.890625 -3.71875 2.03125 -3.71875 C 2.53125 -3.71875 2.78125 -3.578125 2.859375 -3.109375 L 2.90625 -3.109375 C 2.859375 -3.390625 2.875 -3.734375 2.90625 -3.9375 C 2.59375 -3.921875 2.140625 -3.90625 1.65625 -3.90625 C 1.140625 -3.90625 0.65625 -3.921875 0.265625 -3.9375 L 0.265625 -3.90625 C 0.578125 -3.84375 0.71875 -3.6875 0.734375 -3.40625 C 0.765625 -2.921875 0.765625 -2.515625 0.765625 -1.96875 C 0.765625 -1.34375 0.765625 -1.03125 0.734375 -0.515625 C 0.71875 -0.203125 0.578125 -0.09375 0.28125 -0.03125 L 0.28125 0 C 0.640625 -0.03125 1.3125 -0.03125 1.65625 -0.03125 C 2.015625 -0.03125 2.453125 -0.03125 2.921875 0 C 2.890625 -0.3125 2.890625 -0.609375 2.921875 -0.90625 Z M 2.921875 -0.90625 "/></g></g></g><g fill="#000000" fill-opacity="1"><g transform="translate(132.393427, 7.257768)"><g><path d="M 1.390625 0.0625 C 2.109375 0.0625 2.6875 -0.375 2.6875 -1.046875 C 2.6875 -2.140625 1.125 -2.46875 1.125 -3.25 C 1.125 -3.515625 1.328125 -3.765625 1.734375 -3.765625 C 2.0625 -3.765625 2.328125 -3.578125 2.421875 -3.125 L 2.453125 -3.125 C 2.421875 -3.296875 2.4375 -3.59375 2.453125 -3.796875 C 2.28125 -3.90625 2.046875 -4 1.703125 -4 C 1.078125 -4 0.46875 -3.6875 0.46875 -3.015625 C 0.46875 -1.96875 2.03125 -1.65625 2.03125 -0.78125 C 2.03125 -0.390625 1.71875 -0.171875 1.34375 -0.171875 C 0.921875 -0.171875 0.546875 -0.46875 0.4375 -1 L 0.40625 -1 C 0.4375 -0.75 0.4375 -0.515625 0.40625 -0.265625 C 0.59375 -0.125 0.90625 0.0625 1.390625 0.0625 Z M 1.390625 0.0625 "/></g></g></g><g fill="#000000" fill-opacity="1"><g transform="translate(136.020074, 7.257768)"><g><path d="M 1.390625 0.0625 C 2.109375 0.0625 2.6875 -0.375 2.6875 -1.046875 C 2.6875 -2.140625 1.125 -2.46875 1.125 -3.25 C 1.125 -3.515625 1.328125 -3.765625 1.734375 -3.765625 C 2.0625 -3.765625 2.328125 -3.578125 2.421875 -3.125 L 2.453125 -3.125 C 2.421875 -3.296875 2.4375 -3.59375 2.453125 -3.796875 C 2.28125 -3.90625 2.046875 -4 1.703125 -4 C 1.078125 -4 0.46875 -3.6875 0.46875 -3.015625 C 0.46875 -1.96875 2.03125 -1.65625 2.03125 -0.78125 C 2.03125 -0.390625 1.71875 -0.171875 1.34375 -0.171875 C 0.921875 -0.171875 0.546875 -0.46875 0.4375 -1 L 0.40625 -1 C 0.4375 -0.75 0.4375 -0.515625 0.40625 -0.265625 C 0.59375 -0.125 0.90625 0.0625 1.390625 0.0625 Z M 1.390625 0.0625 "/></g></g></g><g fill="#000000" fill-opacity="1"><g transform="translate(139.646722, 7.257768)"><g/></g></g><g fill="#000000" fill-opacity="1"><g transform="translate(141.498279, 7.257768)"><g><path d="M 1.390625 0.0625 C 2.109375 0.0625 2.6875 -0.375 2.6875 -1.046875 C 2.6875 -2.140625 1.125 -2.46875 1.125 -3.25 C 1.125 -3.515625 1.328125 -3.765625 1.734375 -3.765625 C 2.0625 -3.765625 2.328125 -3.578125 2.421875 -3.125 L 2.453125 -3.125 C 2.421875 -3.296875 2.4375 -3.59375 2.453125 -3.796875 C 2.28125 -3.90625 2.046875 -4 1.703125 -4 C 1.078125 -4 0.46875 -3.6875 0.46875 -3.015625 C 0.46875 -1.96875 2.03125 -1.65625 2.03125 -0.78125 C 2.03125 -0.390625 1.71875 -0.171875 1.34375 -0.171875 C 0.921875 -0.171875 0.546875 -0.46875 0.4375 -1 L 0.40625 -1 C 0.4375 -0.75 0.4375 -0.515625 0.40625 -0.265625 C 0.59375 -0.125 0.90625 0.0625 1.390625 0.0625 Z M 1.390625 0.0625 "/></g></g></g><g fill="#000000" fill-opacity="1"><g transform="translate(145.124926, 7.257768)"><g><path d="M 3.625 -3.90625 C 3.421875 -3.90625 3.234375 -3.921875 2.96875 -3.9375 L 2.96875 -3.90625 C 3.234375 -3.875 3.390625 -3.75 3.40625 -3.4375 C 3.4375 -2.984375 3.453125 -1.96875 3.453125 -1.515625 C 3.453125 -0.625 3.0625 -0.203125 2.40625 -0.203125 C 1.734375 -0.203125 1.375 -0.640625 1.375 -1.5625 C 1.375 -2.234375 1.375 -2.890625 1.40625 -3.453125 C 1.421875 -3.734375 1.546875 -3.84375 1.859375 -3.90625 L 1.859375 -3.9375 C 1.59375 -3.921875 1.296875 -3.90625 1.046875 -3.90625 C 0.78125 -3.90625 0.484375 -3.921875 0.21875 -3.9375 L 0.21875 -3.90625 C 0.53125 -3.84375 0.65625 -3.71875 0.671875 -3.4375 C 0.703125 -2.9375 0.703125 -2.265625 0.703125 -1.578125 C 0.703125 -0.515625 1.359375 0.0625 2.296875 0.0625 C 3.234375 0.0625 3.8125 -0.484375 3.8125 -1.515625 C 3.8125 -2.15625 3.828125 -2.9375 3.84375 -3.4375 C 3.859375 -3.765625 4.015625 -3.875 4.296875 -3.90625 L 4.296875 -3.9375 C 4.03125 -3.921875 3.8125 -3.90625 3.625 -3.90625 Z M 3.625 -3.90625 "/></g></g></g><g fill="#000000" fill-opacity="1"><g transform="translate(150.177109, 7.257768)"><g><path d="M 1.65625 -1.75 L 1.65625 -1.71875 C 2.4375 -1.75 3.171875 -2.15625 3.171875 -2.9375 C 3.171875 -3.546875 2.703125 -3.9375 1.8125 -3.9375 C 1.546875 -3.9375 1.34375 -3.90625 1.046875 -3.90625 C 0.859375 -3.90625 0.515625 -3.921875 0.28125 -3.9375 L 0.28125 -3.90625 C 0.59375 -3.84375 0.71875 -3.734375 0.734375 -3.40625 C 0.765625 -2.90625 0.765625 -2.5 0.765625 -1.96875 C 0.765625 -1.390625 0.765625 -1 0.734375 -0.5 C 0.71875 -0.21875 0.578125 -0.09375 0.265625 -0.03125 L 0.265625 0 C 0.546875 -0.015625 0.84375 -0.03125 1.09375 -0.03125 C 1.34375 -0.03125 1.640625 -0.015625 1.921875 0 L 1.921875 -0.03125 C 1.59375 -0.09375 1.484375 -0.21875 1.46875 -0.5 C 1.4375 -1.0625 1.421875 -1.328125 1.421875 -1.96875 C 1.421875 -2.5 1.421875 -2.90625 1.453125 -3.703125 C 1.546875 -3.71875 1.625 -3.734375 1.6875 -3.734375 C 2.171875 -3.734375 2.46875 -3.328125 2.46875 -2.796875 C 2.46875 -2.46875 2.359375 -1.8125 1.65625 -1.75 Z M 1.65625 -1.75 "/></g></g></g><g fill="#000000" fill-opacity="1"><g transform="translate(154.131464, 7.257768)"><g><path d="M 1.65625 -1.75 L 1.65625 -1.71875 C 2.4375 -1.75 3.171875 -2.15625 3.171875 -2.9375 C 3.171875 -3.546875 2.703125 -3.9375 1.8125 -3.9375 C 1.546875 -3.9375 1.34375 -3.90625 1.046875 -3.90625 C 0.859375 -3.90625 0.515625 -3.921875 0.28125 -3.9375 L 0.28125 -3.90625 C 0.59375 -3.84375 0.71875 -3.734375 0.734375 -3.40625 C 0.765625 -2.90625 0.765625 -2.5 0.765625 -1.96875 C 0.765625 -1.390625 0.765625 -1 0.734375 -0.5 C 0.71875 -0.21875 0.578125 -0.09375 0.265625 -0.03125 L 0.265625 0 C 0.546875 -0.015625 0.84375 -0.03125 1.09375 -0.03125 C 1.34375 -0.03125 1.640625 -0.015625 1.921875 0 L 1.921875 -0.03125 C 1.59375 -0.09375 1.484375 -0.21875 1.46875 -0.5 C 1.4375 -1.0625 1.421875 -1.328125 1.421875 -1.96875 C 1.421875 -2.5 1.421875 -2.90625 1.453125 -3.703125 C 1.546875 -3.71875 1.625 -3.734375 1.6875 -3.734375 C 2.171875 -3.734375 2.46875 -3.328125 2.46875 -2.796875 C 2.46875 -2.46875 2.359375 -1.8125 1.65625 -1.75 Z M 1.65625 -1.75 "/></g></g></g><g fill="#000000" fill-opacity="1"><g transform="translate(158.08582, 7.257768)"><g><path d="M 2.40625 0.0625 C 3.640625 0.0625 4.5 -0.828125 4.5 -1.984375 C 4.5 -3.15625 3.578125 -4 2.375 -4 C 1.15625 -4 0.28125 -3.109375 0.28125 -1.953125 C 0.28125 -0.796875 1.21875 0.0625 2.40625 0.0625 Z M 2.453125 -0.171875 C 1.515625 -0.171875 1 -1.125 1 -2.109375 C 1 -3.046875 1.53125 -3.78125 2.328125 -3.78125 C 3.28125 -3.78125 3.78125 -2.8125 3.78125 -1.84375 C 3.78125 -0.875 3.265625 -0.171875 2.453125 -0.171875 Z M 2.453125 -0.171875 "/></g></g></g><g fill="#000000" fill-opacity="1"><g transform="translate(163.422026, 7.257768)"><g><path d="M 2.625 -1.828125 C 2.984375 -2.046875 3.1875 -2.421875 3.1875 -2.84375 C 3.1875 -3.46875 2.703125 -3.9375 1.796875 -3.9375 C 1.578125 -3.9375 1.3125 -3.90625 1.015625 -3.90625 C 0.8125 -3.90625 0.53125 -3.921875 0.28125 -3.9375 L 0.28125 -3.90625 C 0.59375 -3.84375 0.71875 -3.75 0.734375 -3.453125 C 0.765625 -3.078125 0.765625 -2.1875 0.765625 -1.96875 C 0.765625 -1.40625 0.765625 -1 0.734375 -0.515625 C 0.71875 -0.234375 0.578125 -0.09375 0.265625 -0.03125 L 0.265625 0 C 0.546875 -0.015625 0.84375 -0.03125 1.09375 -0.03125 C 1.34375 -0.03125 1.640625 -0.015625 1.921875 0 L 1.921875 -0.03125 C 1.59375 -0.09375 1.484375 -0.234375 1.46875 -0.5 C 1.4375 -0.953125 1.4375 -1.21875 1.421875 -1.640625 C 1.546875 -1.625 1.703125 -1.625 1.828125 -1.625 L 1.921875 -1.625 C 2.8125 -0.328125 2.46875 0 4.25 0 L 4.25 -0.03125 C 3.609375 -0.0625 3.25 -0.71875 2.625 -1.828125 Z M 1.734375 -1.8125 C 1.609375 -1.8125 1.515625 -1.828125 1.421875 -1.859375 L 1.421875 -1.96875 C 1.421875 -2.5 1.421875 -2.890625 1.453125 -3.6875 C 1.546875 -3.703125 1.625 -3.703125 1.703125 -3.703125 C 2.265625 -3.703125 2.515625 -3.25 2.515625 -2.75 C 2.515625 -2.375 2.375 -1.8125 1.734375 -1.8125 Z M 1.734375 -1.8125 "/></g></g></g><g fill="#000000" fill-opacity="1"><g transform="translate(168.080968, 7.257768)"><g><path d="M 3.75 -4.109375 C 3.71875 -4 3.671875 -3.96875 3.578125 -3.953125 C 3.375 -3.9375 2.359375 -3.90625 1.96875 -3.90625 C 1.5625 -3.90625 0.65625 -3.9375 0.484375 -3.953125 C 0.421875 -3.96875 0.390625 -3.96875 0.390625 -4.109375 L 0.359375 -4.109375 C 0.328125 -3.859375 0.21875 -3.328125 0.15625 -3.15625 L 0.1875 -3.140625 C 0.28125 -3.375 0.34375 -3.578125 0.609375 -3.625 C 0.8125 -3.65625 1.234375 -3.671875 1.609375 -3.6875 C 1.640625 -3.125 1.640625 -2.5 1.640625 -1.953125 C 1.640625 -1.390625 1.640625 -0.984375 1.609375 -0.5 C 1.59375 -0.21875 1.46875 -0.09375 1.15625 -0.015625 L 1.15625 0.015625 C 1.421875 0 1.734375 -0.015625 1.984375 -0.015625 C 2.21875 -0.015625 2.53125 0 2.8125 0.015625 L 2.8125 -0.015625 C 2.484375 -0.09375 2.375 -0.21875 2.359375 -0.5 C 2.3125 -1.046875 2.3125 -1.328125 2.3125 -1.953125 C 2.3125 -2.578125 2.3125 -3.15625 2.34375 -3.6875 C 2.703125 -3.671875 3.125 -3.65625 3.3125 -3.625 C 3.5625 -3.59375 3.609375 -3.40625 3.578125 -3.1875 L 3.609375 -3.1875 C 3.640625 -3.390625 3.703125 -3.796875 3.78125 -4.109375 Z M 3.75 -4.109375 "/></g></g></g><g fill="#000000" fill-opacity="1"><g transform="translate(172.592439, 7.257768)"><g/></g></g><g fill="#000000" fill-opacity="1"><g transform="translate(174.443995, 7.257768)"><g><path d="M 1.390625 0.0625 C 2.109375 0.0625 2.6875 -0.375 2.6875 -1.046875 C 2.6875 -2.140625 1.125 -2.46875 1.125 -3.25 C 1.125 -3.515625 1.328125 -3.765625 1.734375 -3.765625 C 2.0625 -3.765625 2.328125 -3.578125 2.421875 -3.125 L 2.453125 -3.125 C 2.421875 -3.296875 2.4375 -3.59375 2.453125 -3.796875 C 2.28125 -3.90625 2.046875 -4 1.703125 -4 C 1.078125 -4 0.46875 -3.6875 0.46875 -3.015625 C 0.46875 -1.96875 2.03125 -1.65625 2.03125 -0.78125 C 2.03125 -0.390625 1.71875 -0.171875 1.34375 -0.171875 C 0.921875 -0.171875 0.546875 -0.46875 0.4375 -1 L 0.40625 -1 C 0.4375 -0.75 0.4375 -0.515625 0.40625 -0.265625 C 0.59375 -0.125 0.90625 0.0625 1.390625 0.0625 Z M 1.390625 0.0625 "/></g></g></g><g fill="#000000" fill-opacity="1"><g transform="translate(178.070643, 7.257768)"><g><path d="M 2.921875 -0.90625 L 2.890625 -0.90625 C 2.78125 -0.40625 2.578125 -0.265625 2.109375 -0.265625 C 1.8125 -0.265625 1.46875 -0.296875 1.453125 -0.6875 C 1.4375 -0.9375 1.421875 -1.359375 1.421875 -1.96875 C 1.609375 -1.96875 1.8125 -1.953125 2 -1.953125 C 2.40625 -1.9375 2.453125 -1.828125 2.515625 -1.53125 L 2.546875 -1.546875 C 2.53125 -1.71875 2.515625 -1.890625 2.515625 -2.0625 C 2.515625 -2.21875 2.53125 -2.390625 2.546875 -2.578125 L 2.515625 -2.578125 C 2.46875 -2.328125 2.40625 -2.171875 2 -2.15625 C 1.734375 -2.15625 1.5625 -2.140625 1.421875 -2.15625 C 1.421875 -2.609375 1.4375 -2.9375 1.453125 -3.6875 C 1.71875 -3.71875 1.890625 -3.71875 2.03125 -3.71875 C 2.53125 -3.71875 2.78125 -3.578125 2.859375 -3.109375 L 2.90625 -3.109375 C 2.859375 -3.390625 2.875 -3.734375 2.90625 -3.9375 C 2.59375 -3.921875 2.140625 -3.90625 1.65625 -3.90625 C 1.140625 -3.90625 0.65625 -3.921875 0.265625 -3.9375 L 0.265625 -3.90625 C 0.578125 -3.84375 0.71875 -3.6875 0.734375 -3.40625 C 0.765625 -2.921875 0.765625 -2.515625 0.765625 -1.96875 C 0.765625 -1.34375 0.765625 -1.03125 0.734375 -0.515625 C 0.71875 -0.203125 0.578125 -0.09375 0.28125 -0.03125 L 0.28125 0 C 0.640625 -0.03125 1.3125 -0.03125 1.65625 -0.03125 C 2.015625 -0.03125 2.453125 -0.03125 2.921875 0 C 2.890625 -0.3125 2.890625 -0.609375 2.921875 -0.90625 Z M 2.921875 -0.90625 "/></g></g></g><g fill="#000000" fill-opacity="1"><g transform="translate(181.915767, 7.257768)"><g><path d="M 2.625 -1.828125 C 2.984375 -2.046875 3.1875 -2.421875 3.1875 -2.84375 C 3.1875 -3.46875 2.703125 -3.9375 1.796875 -3.9375 C 1.578125 -3.9375 1.3125 -3.90625 1.015625 -3.90625 C 0.8125 -3.90625 0.53125 -3.921875 0.28125 -3.9375 L 0.28125 -3.90625 C 0.59375 -3.84375 0.71875 -3.75 0.734375 -3.453125 C 0.765625 -3.078125 0.765625 -2.1875 0.765625 -1.96875 C 0.765625 -1.40625 0.765625 -1 0.734375 -0.515625 C 0.71875 -0.234375 0.578125 -0.09375 0.265625 -0.03125 L 0.265625 0 C 0.546875 -0.015625 0.84375 -0.03125 1.09375 -0.03125 C 1.34375 -0.03125 1.640625 -0.015625 1.921875 0 L 1.921875 -0.03125 C 1.59375 -0.09375 1.484375 -0.234375 1.46875 -0.5 C 1.4375 -0.953125 1.4375 -1.21875 1.421875 -1.640625 C 1.546875 -1.625 1.703125 -1.625 1.828125 -1.625 L 1.921875 -1.625 C 2.8125 -0.328125 2.46875 0 4.25 0 L 4.25 -0.03125 C 3.609375 -0.0625 3.25 -0.71875 2.625 -1.828125 Z M 1.734375 -1.8125 C 1.609375 -1.8125 1.515625 -1.828125 1.421875 -1.859375 L 1.421875 -1.96875 C 1.421875 -2.5 1.421875 -2.890625 1.453125 -3.6875 C 1.546875 -3.703125 1.625 -3.703125 1.703125 -3.703125 C 2.265625 -3.703125 2.515625 -3.25 2.515625 -2.75 C 2.515625 -2.375 2.375 -1.8125 1.734375 -1.8125 Z M 1.734375 -1.8125 "/></g></g></g><g fill="#000000" fill-opacity="1"><g transform="translate(186.574709, 7.257768)"><g><path d="M 3.71875 -3.90625 C 3.515625 -3.90625 3.328125 -3.921875 3.125 -3.9375 L 3.125 -3.90625 C 3.484375 -3.828125 3.5 -3.703125 3.375 -3.390625 C 3.046875 -2.59375 2.703125 -1.78125 2.40625 -1.09375 C 2.0625 -1.765625 1.59375 -2.734375 1.34375 -3.375 C 1.234375 -3.703125 1.296875 -3.8125 1.71875 -3.90625 L 1.71875 -3.9375 C 1.46875 -3.921875 1.015625 -3.90625 0.8125 -3.90625 C 0.609375 -3.90625 0.25 -3.921875 0.03125 -3.9375 L 0.03125 -3.90625 C 0.25 -3.828125 0.375 -3.703125 0.53125 -3.390625 C 1.046875 -2.359375 1.359375 -1.703125 2.15625 0.0625 C 2.65625 -1.015625 3.21875 -2.25 3.765625 -3.390625 C 3.921875 -3.703125 4.015625 -3.796875 4.265625 -3.90625 L 4.265625 -3.9375 C 4.140625 -3.921875 3.90625 -3.90625 3.71875 -3.90625 Z M 3.71875 -3.90625 "/></g></g></g><g fill="#000000" fill-opacity="1"><g transform="translate(191.419347, 7.257768)"><g><path d="M 1.921875 -3.90625 L 1.921875 -3.9375 C 1.640625 -3.921875 1.34375 -3.90625 1.09375 -3.90625 C 0.84375 -3.90625 0.546875 -3.921875 0.265625 -3.9375 L 0.265625 -3.90625 C 0.578125 -3.84375 0.71875 -3.703125 0.734375 -3.421875 C 0.765625 -2.9375 0.765625 -2.53125 0.765625 -1.96875 C 0.765625 -1.40625 0.765625 -1 0.734375 -0.515625 C 0.71875 -0.234375 0.578125 -0.09375 0.265625 -0.03125 L 0.265625 0 C 0.546875 -0.015625 0.84375 -0.03125 1.09375 -0.03125 C 1.34375 -0.03125 1.640625 -0.015625 1.921875 0 L 1.921875 -0.03125 C 1.609375 -0.09375 1.484375 -0.234375 1.46875 -0.515625 C 1.4375 -1.0625 1.421875 -1.328125 1.421875 -1.96875 C 1.421875 -2.609375 1.4375 -2.875 1.46875 -3.421875 C 1.484375 -3.703125 1.59375 -3.828125 1.921875 -3.90625 Z M 1.921875 -3.90625 "/></g></g></g><g fill="#000000" fill-opacity="1"><g transform="translate(194.161185, 7.257768)"><g><path d="M 2.46875 0.0625 C 2.984375 0.0625 3.5 -0.078125 3.796875 -0.171875 C 3.765625 -0.40625 3.75 -0.71875 3.796875 -1.09375 L 3.765625 -1.09375 C 3.609375 -0.34375 3.078125 -0.1875 2.59375 -0.1875 C 1.4375 -0.1875 1.015625 -1.1875 1.015625 -2.109375 C 1.015625 -3.03125 1.515625 -3.75 2.5 -3.75 C 3.03125 -3.75 3.453125 -3.578125 3.65625 -2.921875 L 3.6875 -2.921875 C 3.65625 -3.203125 3.640625 -3.46875 3.6875 -3.765625 C 3.390625 -3.875 2.953125 -4 2.46875 -4 C 1.203125 -4 0.28125 -3.15625 0.28125 -1.96875 C 0.28125 -0.796875 1.15625 0.0625 2.46875 0.0625 Z M 2.46875 0.0625 "/></g></g></g><g fill="#000000" fill-opacity="1"><g transform="translate(198.88566, 7.257768)"><g><path d="M 2.921875 -0.90625 L 2.890625 -0.90625 C 2.78125 -0.40625 2.578125 -0.265625 2.109375 -0.265625 C 1.8125 -0.265625 1.46875 -0.296875 1.453125 -0.6875 C 1.4375 -0.9375 1.421875 -1.359375 1.421875 -1.96875 C 1.609375 -1.96875 1.8125 -1.953125 2 -1.953125 C 2.40625 -1.9375 2.453125 -1.828125 2.515625 -1.53125 L 2.546875 -1.546875 C 2.53125 -1.71875 2.515625 -1.890625 2.515625 -2.0625 C 2.515625 -2.21875 2.53125 -2.390625 2.546875 -2.578125 L 2.515625 -2.578125 C 2.46875 -2.328125 2.40625 -2.171875 2 -2.15625 C 1.734375 -2.15625 1.5625 -2.140625 1.421875 -2.15625 C 1.421875 -2.609375 1.4375 -2.9375 1.453125 -3.6875 C 1.71875 -3.71875 1.890625 -3.71875 2.03125 -3.71875 C 2.53125 -3.71875 2.78125 -3.578125 2.859375 -3.109375 L 2.90625 -3.109375 C 2.859375 -3.390625 2.875 -3.734375 2.90625 -3.9375 C 2.59375 -3.921875 2.140625 -3.90625 1.65625 -3.90625 C 1.140625 -3.90625 0.65625 -3.921875 0.265625 -3.9375 L 0.265625 -3.90625 C 0.578125 -3.84375 0.71875 -3.6875 0.734375 -3.40625 C 0.765625 -2.921875 0.765625 -2.515625 0.765625 -1.96875 C 0.765625 -1.34375 0.765625 -1.03125 0.734375 -0.515625 C 0.71875 -0.203125 0.578125 -0.09375 0.28125 -0.03125 L 0.28125 0 C 0.640625 -0.03125 1.3125 -0.03125 1.65625 -0.03125 C 2.015625 -0.03125 2.453125 -0.03125 2.921875 0 C 2.890625 -0.3125 2.890625 -0.609375 2.921875 -0.90625 Z M 2.921875 -0.90625 "/></g></g></g><g fill="#000000" fill-opacity="1"><g transform="translate(202.730784, 7.257768)"><g><path d="M 1.390625 0.0625 C 2.109375 0.0625 2.6875 -0.375 2.6875 -1.046875 C 2.6875 -2.140625 1.125 -2.46875 1.125 -3.25 C 1.125 -3.515625 1.328125 -3.765625 1.734375 -3.765625 C 2.0625 -3.765625 2.328125 -3.578125 2.421875 -3.125 L 2.453125 -3.125 C 2.421875 -3.296875 2.4375 -3.59375 2.453125 -3.796875 C 2.28125 -3.90625 2.046875 -4 1.703125 -4 C 1.078125 -4 0.46875 -3.6875 0.46875 -3.015625 C 0.46875 -1.96875 2.03125 -1.65625 2.03125 -0.78125 C 2.03125 -0.390625 1.71875 -0.171875 1.34375 -0.171875 C 0.921875 -0.171875 0.546875 -0.46875 0.4375 -1 L 0.40625 -1 C 0.4375 -0.75 0.4375 -0.515625 0.40625 -0.265625 C 0.59375 -0.125 0.90625 0.0625 1.390625 0.0625 Z M 1.390625 0.0625 "/></g></g></g><g fill="#000000" fill-opacity="1"><g transform="translate(206.357432, 7.257768)"><g/></g></g><g fill="#000000" fill-opacity="1"><g transform="translate(208.208988, 7.257768)"><g><path d="M 4.265625 -0.03125 C 3.9375 -0.0625 3.796875 -0.21875 3.234375 -0.75 L 2.984375 -0.984375 C 3.125 -1.25 3.21875 -1.546875 3.3125 -1.84375 C 3.390625 -2.09375 3.421875 -2.1875 3.828125 -2.25 L 3.828125 -2.28125 C 3.75 -2.265625 3.5 -2.234375 3.1875 -2.234375 C 2.921875 -2.234375 2.625 -2.265625 2.5 -2.28125 L 2.5 -2.25 C 2.875 -2.1875 3 -2.046875 2.984375 -1.796875 C 2.984375 -1.625 2.9375 -1.375 2.84375 -1.125 L 2.015625 -1.90625 C 1.4375 -2.46875 1.09375 -2.765625 1.09375 -3.1875 C 1.09375 -3.5 1.296875 -3.765625 1.71875 -3.765625 C 2.078125 -3.765625 2.375 -3.5625 2.484375 -3.046875 L 2.515625 -3.046875 C 2.484375 -3.296875 2.484375 -3.578125 2.515625 -3.8125 C 2.328125 -3.90625 2.0625 -4 1.75 -4 C 1.015625 -4 0.625 -3.484375 0.625 -2.953125 C 0.625 -2.578125 0.84375 -2.265625 1.09375 -2 C 0.703125 -1.84375 0.25 -1.5625 0.25 -1 C 0.25 -0.3125 0.875 0.0625 1.578125 0.0625 C 2.078125 0.0625 2.421875 -0.15625 2.6875 -0.46875 C 3.0625 -0.125 3.203125 0 4.265625 0 Z M 1.703125 -0.140625 C 1.171875 -0.140625 0.84375 -0.53125 0.84375 -1.09375 C 0.84375 -1.421875 0.96875 -1.703125 1.171875 -1.921875 C 1.265625 -1.828125 1.34375 -1.75 1.421875 -1.671875 L 2.546875 -0.59375 C 2.359375 -0.328125 2.078125 -0.140625 1.703125 -0.140625 Z M 1.703125 -0.140625 "/></g></g></g><g fill="#000000" fill-opacity="1"><g transform="translate(213.026318, 7.257768)"><g/></g></g><g fill="#000000" fill-opacity="1"><g transform="translate(214.877874, 7.257768)"><g><path d="M 4.921875 -0.484375 C 4.765625 -1.65625 4.65625 -2.78125 4.5625 -4 L 4.546875 -4 C 4 -3 3.453125 -2.0625 2.78125 -1 C 2.03125 -2.15625 1.484375 -3.0625 0.953125 -4 L 0.9375 -4 C 0.859375 -2.84375 0.734375 -1.640625 0.578125 -0.5 C 0.53125 -0.1875 0.421875 -0.09375 0.09375 -0.03125 L 0.09375 0 C 0.34375 -0.015625 0.53125 -0.03125 0.71875 -0.03125 C 0.9375 -0.03125 1.109375 -0.015625 1.359375 0 L 1.359375 -0.03125 C 1 -0.109375 0.9375 -0.203125 0.953125 -0.515625 C 0.984375 -1.140625 1.046875 -1.703125 1.125 -2.34375 C 1.625 -1.546875 2.125 -0.71875 2.5625 0.0625 L 2.578125 0.0625 C 3.03125 -0.75 3.484375 -1.546875 3.984375 -2.359375 C 4.0625 -1.734375 4.125 -1.125 4.15625 -0.484375 C 4.171875 -0.171875 4.0625 -0.09375 3.75 -0.03125 L 3.75 0 C 4.015625 -0.03125 4.328125 -0.03125 4.5625 -0.03125 C 4.875 -0.03125 5.15625 -0.015625 5.421875 0 L 5.421875 -0.03125 C 5.09375 -0.09375 4.96875 -0.1875 4.921875 -0.484375 Z M 4.921875 -0.484375 "/></g></g></g><g fill="#000000" fill-opacity="1"><g transform="translate(220.945961, 7.257768)"><g><path d="M 2.40625 0.0625 C 3.640625 0.0625 4.5 -0.828125 4.5 -1.984375 C 4.5 -3.15625 3.578125 -4 2.375 -4 C 1.15625 -4 0.28125 -3.109375 0.28125 -1.953125 C 0.28125 -0.796875 1.21875 0.0625 2.40625 0.0625 Z M 2.453125 -0.171875 C 1.515625 -0.171875 1 -1.125 1 -2.109375 C 1 -3.046875 1.53125 -3.78125 2.328125 -3.78125 C 3.28125 -3.78125 3.78125 -2.8125 3.78125 -1.84375 C 3.78125 -0.875 3.265625 -0.171875 2.453125 -0.171875 Z M 2.453125 -0.171875 "/></g></g></g><g fill="#000000" fill-opacity="1"><g transform="translate(226.282167, 7.257768)"><g><path d="M 2.625 -1.828125 C 2.984375 -2.046875 3.1875 -2.421875 3.1875 -2.84375 C 3.1875 -3.46875 2.703125 -3.9375 1.796875 -3.9375 C 1.578125 -3.9375 1.3125 -3.90625 1.015625 -3.90625 C 0.8125 -3.90625 0.53125 -3.921875 0.28125 -3.9375 L 0.28125 -3.90625 C 0.59375 -3.84375 0.71875 -3.75 0.734375 -3.453125 C 0.765625 -3.078125 0.765625 -2.1875 0.765625 -1.96875 C 0.765625 -1.40625 0.765625 -1 0.734375 -0.515625 C 0.71875 -0.234375 0.578125 -0.09375 0.265625 -0.03125 L 0.265625 0 C 0.546875 -0.015625 0.84375 -0.03125 1.09375 -0.03125 C 1.34375 -0.03125 1.640625 -0.015625 1.921875 0 L 1.921875 -0.03125 C 1.59375 -0.09375 1.484375 -0.234375 1.46875 -0.5 C 1.4375 -0.953125 1.4375 -1.21875 1.421875 -1.640625 C 1.546875 -1.625 1.703125 -1.625 1.828125 -1.625 L 1.921875 -1.625 C 2.8125 -0.328125 2.46875 0 4.25 0 L 4.25 -0.03125 C 3.609375 -0.0625 3.25 -0.71875 2.625 -1.828125 Z M 1.734375 -1.8125 C 1.609375 -1.8125 1.515625 -1.828125 1.421875 -1.859375 L 1.421875 -1.96875 C 1.421875 -2.5 1.421875 -2.890625 1.453125 -3.6875 C 1.546875 -3.703125 1.625 -3.703125 1.703125 -3.703125 C 2.265625 -3.703125 2.515625 -3.25 2.515625 -2.75 C 2.515625 -2.375 2.375 -1.8125 1.734375 -1.8125 Z M 1.734375 -1.8125 "/></g></g></g><g fill="#000000" fill-opacity="1"><g transform="translate(230.941108, 7.257768)"><g><path d="M 2.921875 -0.90625 L 2.890625 -0.90625 C 2.78125 -0.40625 2.578125 -0.265625 2.109375 -0.265625 C 1.8125 -0.265625 1.46875 -0.296875 1.453125 -0.6875 C 1.4375 -0.9375 1.421875 -1.359375 1.421875 -1.96875 C 1.609375 -1.96875 1.8125 -1.953125 2 -1.953125 C 2.40625 -1.9375 2.453125 -1.828125 2.515625 -1.53125 L 2.546875 -1.546875 C 2.53125 -1.71875 2.515625 -1.890625 2.515625 -2.0625 C 2.515625 -2.21875 2.53125 -2.390625 2.546875 -2.578125 L 2.515625 -2.578125 C 2.46875 -2.328125 2.40625 -2.171875 2 -2.15625 C 1.734375 -2.15625 1.5625 -2.140625 1.421875 -2.15625 C 1.421875 -2.609375 1.4375 -2.9375 1.453125 -3.6875 C 1.71875 -3.71875 1.890625 -3.71875 2.03125 -3.71875 C 2.53125 -3.71875 2.78125 -3.578125 2.859375 -3.109375 L 2.90625 -3.109375 C 2.859375 -3.390625 2.875 -3.734375 2.90625 -3.9375 C 2.59375 -3.921875 2.140625 -3.90625 1.65625 -3.90625 C 1.140625 -3.90625 0.65625 -3.921875 0.265625 -3.9375 L 0.265625 -3.90625 C 0.578125 -3.84375 0.71875 -3.6875 0.734375 -3.40625 C 0.765625 -2.921875 0.765625 -2.515625 0.765625 -1.96875 C 0.765625 -1.34375 0.765625 -1.03125 0.734375 -0.515625 C 0.71875 -0.203125 0.578125 -0.09375 0.28125 -0.03125 L 0.28125 0 C 0.640625 -0.03125 1.3125 -0.03125 1.65625 -0.03125 C 2.015625 -0.03125 2.453125 -0.03125 2.921875 0 C 2.890625 -0.3125 2.890625 -0.609375 2.921875 -0.90625 Z M 2.921875 -0.90625 "/></g></g></g><g fill="#000000" fill-opacity="1"><g transform="translate(234.786233, 7.257768)"><g/></g></g><g fill="#000000" fill-opacity="1"><g transform="translate(236.637803, 7.257768)"><g><path d="M 1.046875 0.0625 C 1.203125 -0.1875 1.34375 -0.328125 1.578125 -0.484375 C 1.34375 -0.65625 1.203125 -0.78125 1.046875 -1.03125 C 0.875 -0.78125 0.734375 -0.65625 0.5 -0.484375 C 0.734375 -0.328125 0.875 -0.1875 1.046875 0.0625 Z M 1.046875 0.0625 "/></g></g></g><g fill="#000000" fill-opacity="1"><g transform="translate(239.248547, 7.257768)"><g><path d="M 1.046875 0.0625 C 1.203125 -0.1875 1.34375 -0.328125 1.578125 -0.484375 C 1.34375 -0.65625 1.203125 -0.78125 1.046875 -1.03125 C 0.875 -0.78125 0.734375 -0.65625 0.5 -0.484375 C 0.734375 -0.328125 0.875 -0.1875 1.046875 0.0625 Z M 1.046875 0.0625 "/></g></g></g><g fill="#000000" fill-opacity="1"><g transform="translate(241.859291, 7.257768)"><g><path d="M 1.046875 0.0625 C 1.203125 -0.1875 1.34375 -0.328125 1.578125 -0.484375 C 1.34375 -0.65625 1.203125 -0.78125 1.046875 -1.03125 C 0.875 -0.78125 0.734375 -0.65625 0.5 -0.484375 C 0.734375 -0.328125 0.875 -0.1875 1.046875 0.0625 Z M 1.046875 0.0625 "/></g></g></g><g fill="#000000" fill-opacity="1"><g transform="translate(244.470035, 7.257768)"><g><path d="M 1.046875 0.0625 C 1.203125 -0.1875 1.34375 -0.328125 1.578125 -0.484375 C 1.34375 -0.65625 1.203125 -0.78125 1.046875 -1.03125 C 0.875 -0.78125 0.734375 -0.65625 0.5 -0.484375 C 0.734375 -0.328125 0.875 -0.1875 1.046875 0.0625 Z M 1.046875 0.0625 "/></g></g></g></g></g></g></svg>